<?xml version="1.0" encoding="UTF-8"?>
<!DOCTYPE svg PUBLIC "-//W3C//DTD SVG 1.1//EN" "http://www.w3.org/Graphics/SVG/1.1/DTD/svg11.dtd">
<!-- Creator: CorelDRAW 2020 (64 Bit) -->
<svg xmlns="http://www.w3.org/2000/svg" xml:space="preserve" width="7.31157in" height="2.04736in" version="1.1" style="shape-rendering:geometricPrecision; text-rendering:geometricPrecision; image-rendering:optimizeQuality; fill-rule:evenodd; clip-rule:evenodd"
viewBox="0 0 799.59 223.9"
 xmlns:xlink="http://www.w3.org/1999/xlink"
 xmlns:xodm="http://www.corel.com/coreldraw/odm/2003">
 <defs>
  <style type="text/css">
   <![CDATA[
    .fil1 {fill:white}
    .fil0 {fill:white;fill-rule:nonzero}
   ]]>
  </style>
 </defs>
 <g id="Camada_x0020_1">
  <metadata id="CorelCorpID_0Corel-Layer"/>
  <g id="_2058320905424">
   <polygon class="fil0" points="12.87,216.9 12.87,193.02 16.04,193.02 16.04,214.09 27.78,214.09 27.78,216.9 "/>
   <path id="1" class="fil0" d="M42.49 214.73c-1.09,0.93 -2.14,1.58 -3.15,1.96 -1.01,0.38 -2.08,0.57 -3.24,0.57 -1.9,0 -3.36,-0.46 -4.39,-1.39 -1.02,-0.92 -1.53,-2.11 -1.53,-3.55 0,-0.84 0.19,-1.62 0.58,-2.32 0.39,-0.7 0.89,-1.26 1.52,-1.68 0.63,-0.42 1.33,-0.74 2.11,-0.96 0.58,-0.15 1.45,-0.29 2.61,-0.44 2.37,-0.28 4.12,-0.62 5.24,-1.01 0.01,-0.4 0.02,-0.66 0.02,-0.76 0,-1.19 -0.28,-2.03 -0.83,-2.52 -0.75,-0.66 -1.87,-0.99 -3.35,-0.99 -1.38,0 -2.41,0.24 -3.06,0.73 -0.66,0.48 -1.15,1.34 -1.46,2.57l-2.87 -0.4c0.26,-1.23 0.69,-2.22 1.29,-2.98 0.6,-0.76 1.47,-1.33 2.6,-1.75 1.13,-0.41 2.45,-0.61 3.94,-0.61 1.48,0 2.68,0.17 3.61,0.52 0.92,0.35 1.61,0.78 2.04,1.31 0.43,0.53 0.74,1.19 0.92,2 0.09,0.5 0.14,1.4 0.14,2.7l0 3.89c0,2.72 0.06,4.44 0.18,5.16 0.12,0.73 0.36,1.42 0.72,2.09l-3.07 0c-0.29,-0.62 -0.48,-1.34 -0.57,-2.17zm-0.23 -6.5c-1.07,0.43 -2.67,0.8 -4.8,1.1 -1.21,0.17 -2.07,0.37 -2.57,0.58 -0.5,0.22 -0.88,0.53 -1.16,0.94 -0.27,0.42 -0.41,0.88 -0.41,1.39 0,0.77 0.29,1.42 0.89,1.94 0.59,0.52 1.46,0.78 2.6,0.78 1.13,0 2.13,-0.24 3.02,-0.74 0.88,-0.49 1.53,-1.16 1.94,-2.01 0.32,-0.66 0.47,-1.63 0.47,-2.92l0.02 -1.07z"/>
   <path id="2" class="fil0" d="M52.44 216.9l-2.73 0 0 -23.88 2.93 0 0 8.52c1.24,-1.55 2.82,-2.32 4.74,-2.32 1.06,0 2.07,0.21 3.02,0.64 0.95,0.43 1.73,1.03 2.35,1.81 0.61,0.78 1.09,1.71 1.44,2.81 0.35,1.09 0.52,2.26 0.52,3.51 0,2.96 -0.73,5.25 -2.2,6.86 -1.47,1.62 -3.22,2.42 -5.27,2.42 -2.04,0 -3.64,-0.85 -4.8,-2.55l0 2.18zm-0.03 -8.78c0,2.07 0.28,3.56 0.84,4.49 0.92,1.51 2.17,2.26 3.74,2.26 1.28,0 2.39,-0.56 3.32,-1.67 0.93,-1.11 1.4,-2.77 1.4,-4.97 0,-2.26 -0.44,-3.92 -1.34,-4.99 -0.89,-1.07 -1.98,-1.61 -3.25,-1.61 -1.28,0 -2.39,0.56 -3.32,1.67 -0.93,1.11 -1.4,2.72 -1.4,4.82z"/>
   <path id="3" class="fil0" d="M67.18 208.24c0,-3.2 0.89,-5.56 2.67,-7.1 1.48,-1.28 3.3,-1.92 5.44,-1.92 2.37,0 4.32,0.78 5.83,2.33 1.51,1.55 2.26,3.7 2.26,6.44 0,2.22 -0.33,3.97 -1,5.24 -0.67,1.27 -1.64,2.26 -2.92,2.97 -1.27,0.71 -2.67,1.06 -4.17,1.06 -2.42,0 -4.38,-0.77 -5.87,-2.32 -1.5,-1.55 -2.24,-3.79 -2.24,-6.7zm3 0.01c0,2.21 0.48,3.87 1.45,4.96 0.97,1.1 2.19,1.65 3.66,1.65 1.46,0 2.67,-0.55 3.64,-1.66 0.97,-1.11 1.45,-2.79 1.45,-5.05 0,-2.13 -0.49,-3.75 -1.46,-4.85 -0.97,-1.1 -2.18,-1.65 -3.63,-1.65 -1.47,0 -2.69,0.54 -3.66,1.64 -0.97,1.1 -1.45,2.75 -1.45,4.95z"/>
   <path id="4" class="fil0" d="M86.8 216.9l0 -17.31 2.63 0 0 2.65c0.67,-1.23 1.3,-2.04 1.87,-2.43 0.57,-0.39 1.2,-0.59 1.88,-0.59 0.99,0 2,0.31 3.02,0.93l-1.04 2.71c-0.71,-0.4 -1.42,-0.6 -2.13,-0.6 -0.64,0 -1.21,0.19 -1.72,0.58 -0.51,0.38 -0.87,0.92 -1.08,1.6 -0.33,1.04 -0.49,2.18 -0.49,3.42l0 9.04 -2.93 0z"/>
   <path id="5" class="fil0" d="M109.24 214.73c-1.09,0.93 -2.14,1.58 -3.15,1.96 -1.01,0.38 -2.08,0.57 -3.24,0.57 -1.9,0 -3.36,-0.46 -4.39,-1.39 -1.02,-0.92 -1.53,-2.11 -1.53,-3.55 0,-0.84 0.19,-1.62 0.58,-2.32 0.39,-0.7 0.89,-1.26 1.52,-1.68 0.63,-0.42 1.33,-0.74 2.11,-0.96 0.58,-0.15 1.45,-0.29 2.61,-0.44 2.37,-0.28 4.12,-0.62 5.24,-1.01 0.01,-0.4 0.02,-0.66 0.02,-0.76 0,-1.19 -0.28,-2.03 -0.83,-2.52 -0.75,-0.66 -1.87,-0.99 -3.35,-0.99 -1.38,0 -2.41,0.24 -3.06,0.73 -0.66,0.48 -1.15,1.34 -1.46,2.57l-2.87 -0.4c0.26,-1.23 0.69,-2.22 1.29,-2.98 0.6,-0.76 1.47,-1.33 2.6,-1.75 1.13,-0.41 2.45,-0.61 3.94,-0.61 1.48,0 2.68,0.17 3.61,0.52 0.92,0.35 1.61,0.78 2.04,1.31 0.43,0.53 0.74,1.19 0.92,2 0.09,0.5 0.14,1.4 0.14,2.7l0 3.89c0,2.72 0.06,4.44 0.18,5.16 0.12,0.73 0.36,1.42 0.72,2.09l-3.07 0c-0.29,-0.62 -0.48,-1.34 -0.57,-2.17zm-0.23 -6.5c-1.07,0.43 -2.67,0.8 -4.8,1.1 -1.21,0.17 -2.07,0.37 -2.57,0.58 -0.5,0.22 -0.88,0.53 -1.16,0.94 -0.27,0.42 -0.41,0.88 -0.41,1.39 0,0.77 0.29,1.42 0.89,1.94 0.59,0.52 1.46,0.78 2.6,0.78 1.13,0 2.13,-0.24 3.02,-0.74 0.88,-0.49 1.53,-1.16 1.94,-2.01 0.32,-0.66 0.47,-1.63 0.47,-2.92l0.02 -1.07z"/>
   <path id="6" class="fil0" d="M122.85 214.28l0.4 2.59c-0.82,0.17 -1.56,0.26 -2.21,0.26 -1.06,0 -1.88,-0.17 -2.47,-0.51 -0.58,-0.34 -1,-0.78 -1.23,-1.33 -0.24,-0.55 -0.36,-1.71 -0.36,-3.47l0 -9.97 -2.17 0 0 -2.27 2.17 0 0 -4.28 2.93 -1.76 0 6.04 2.93 0 0 2.27 -2.93 0 0 10.14c0,0.84 0.05,1.38 0.16,1.62 0.1,0.24 0.27,0.43 0.5,0.57 0.23,0.14 0.57,0.21 1,0.21 0.32,0 0.75,-0.04 1.28,-0.12z"/>
   <path id="7" class="fil0" d="M124.65 208.24c0,-3.2 0.89,-5.56 2.67,-7.1 1.48,-1.28 3.3,-1.92 5.44,-1.92 2.37,0 4.32,0.78 5.83,2.33 1.51,1.55 2.26,3.7 2.26,6.44 0,2.22 -0.33,3.97 -1,5.24 -0.67,1.27 -1.64,2.26 -2.92,2.97 -1.27,0.71 -2.67,1.06 -4.17,1.06 -2.42,0 -4.38,-0.77 -5.87,-2.32 -1.5,-1.55 -2.24,-3.79 -2.24,-6.7zm3 0.01c0,2.21 0.48,3.87 1.45,4.96 0.97,1.1 2.19,1.65 3.66,1.65 1.46,0 2.67,-0.55 3.64,-1.66 0.97,-1.11 1.45,-2.79 1.45,-5.05 0,-2.13 -0.49,-3.75 -1.46,-4.85 -0.97,-1.1 -2.18,-1.65 -3.63,-1.65 -1.47,0 -2.69,0.54 -3.66,1.64 -0.97,1.1 -1.45,2.75 -1.45,4.95zm2.67 -10.79l2.13 -4.57 3.87 0 -3.57 4.57 -2.43 0z"/>
   <path id="8" class="fil0" d="M144.26 216.9l0 -17.31 2.63 0 0 2.65c0.67,-1.23 1.3,-2.04 1.87,-2.43 0.57,-0.39 1.2,-0.59 1.88,-0.59 0.99,0 2,0.31 3.02,0.93l-1.04 2.71c-0.71,-0.4 -1.42,-0.6 -2.13,-0.6 -0.64,0 -1.21,0.19 -1.72,0.58 -0.51,0.38 -0.87,0.92 -1.08,1.6 -0.33,1.04 -0.49,2.18 -0.49,3.42l0 9.04 -2.93 0z"/>
   <path id="9" class="fil0" d="M155.4 196.35l0 -3.33 2.93 0 0 3.33 -2.93 0zm0 20.54l0 -17.31 2.93 0 0 17.31 -2.93 0z"/>
   <path id="10" class="fil0" d="M161.71 208.24c0,-3.2 0.89,-5.56 2.67,-7.1 1.48,-1.28 3.3,-1.92 5.44,-1.92 2.37,0 4.32,0.78 5.83,2.33 1.51,1.55 2.26,3.7 2.26,6.44 0,2.22 -0.33,3.97 -1,5.24 -0.67,1.27 -1.64,2.26 -2.92,2.97 -1.27,0.71 -2.67,1.06 -4.17,1.06 -2.42,0 -4.38,-0.77 -5.87,-2.32 -1.5,-1.55 -2.24,-3.79 -2.24,-6.7zm3 0.01c0,2.21 0.48,3.87 1.45,4.96 0.97,1.1 2.19,1.65 3.66,1.65 1.46,0 2.67,-0.55 3.64,-1.66 0.97,-1.11 1.45,-2.79 1.45,-5.05 0,-2.13 -0.49,-3.75 -1.46,-4.85 -0.97,-1.1 -2.18,-1.65 -3.63,-1.65 -1.47,0 -2.69,0.54 -3.66,1.64 -0.97,1.1 -1.45,2.75 -1.45,4.95z"/>
   <path id="11" class="fil0" d="M201.79 216.9l0 -2.2c-1.09,1.71 -2.71,2.56 -4.84,2.56 -1.38,0 -2.65,-0.38 -3.8,-1.14 -1.16,-0.76 -2.05,-1.82 -2.69,-3.17 -0.63,-1.36 -0.95,-2.92 -0.95,-4.69 0,-1.72 0.29,-3.29 0.86,-4.69 0.58,-1.4 1.44,-2.48 2.59,-3.22 1.14,-0.75 2.43,-1.12 3.85,-1.12 1.04,0 1.97,0.22 2.78,0.66 0.81,0.44 1.47,1.02 1.98,1.72l0 -8.59 2.93 0 0 23.88 -2.73 0zm-9.27 -8.63c0,2.21 0.47,3.86 1.41,4.96 0.93,1.09 2.04,1.64 3.31,1.64 1.28,0 2.37,-0.52 3.27,-1.57 0.9,-1.04 1.35,-2.64 1.35,-4.79 0,-2.36 -0.46,-4.09 -1.37,-5.2 -0.91,-1.11 -2.04,-1.66 -3.38,-1.66 -1.31,0 -2.4,0.53 -3.27,1.59 -0.87,1.06 -1.31,2.73 -1.31,5.02z"/>
   <path id="12" class="fil0" d="M220.98 211.29l3.03 0.4c-0.47,1.76 -1.36,3.13 -2.65,4.11 -1.29,0.97 -2.94,1.46 -4.94,1.46 -2.52,0 -4.52,-0.78 -6,-2.33 -1.48,-1.55 -2.22,-3.74 -2.22,-6.54 0,-2.9 0.74,-5.16 2.24,-6.76 1.5,-1.61 3.44,-2.41 5.82,-2.41 2.31,0 4.19,0.78 5.65,2.36 1.46,1.57 2.2,3.79 2.2,6.64 0,0.17 -0.01,0.43 -0.02,0.78l-12.89 0c0.11,1.9 0.64,3.35 1.61,4.36 0.96,1.01 2.17,1.51 3.61,1.51 1.07,0 1.99,-0.28 2.75,-0.85 0.76,-0.57 1.36,-1.47 1.81,-2.72zm-9.6 -4.7l9.64 0c-0.13,-1.46 -0.5,-2.55 -1.11,-3.27 -0.93,-1.13 -2.14,-1.7 -3.62,-1.7 -1.35,0 -2.47,0.45 -3.39,1.35 -0.91,0.9 -1.42,2.11 -1.52,3.62z"/>
   <path id="13" class="fil0" d="M237.28 216.9l0 -23.88 4.74 0 5.65 16.9c0.52,1.57 0.9,2.75 1.14,3.53 0.27,-0.87 0.7,-2.15 1.28,-3.83l5.75 -16.61 4.23 0 0 23.88 -3.03 0 0 -19.98 -6.97 19.98 -2.85 0 -6.89 -20.34 0 20.34 -3.03 0z"/>
   <path id="14" class="fil0" d="M263.66 208.24c0,-3.2 0.89,-5.56 2.67,-7.1 1.48,-1.28 3.3,-1.92 5.44,-1.92 2.37,0 4.32,0.78 5.83,2.33 1.51,1.55 2.26,3.7 2.26,6.44 0,2.22 -0.33,3.97 -1,5.24 -0.67,1.27 -1.64,2.26 -2.92,2.97 -1.27,0.71 -2.67,1.06 -4.17,1.06 -2.42,0 -4.38,-0.77 -5.87,-2.32 -1.5,-1.55 -2.24,-3.79 -2.24,-6.7zm3 0.01c0,2.21 0.48,3.87 1.45,4.96 0.97,1.1 2.19,1.65 3.66,1.65 1.46,0 2.67,-0.55 3.64,-1.66 0.97,-1.11 1.45,-2.79 1.45,-5.05 0,-2.13 -0.49,-3.75 -1.46,-4.85 -0.97,-1.1 -2.18,-1.65 -3.63,-1.65 -1.47,0 -2.69,0.54 -3.66,1.64 -0.97,1.1 -1.45,2.75 -1.45,4.95z"/>
   <path id="15" class="fil0" d="M294.48 216.9l0 -2.2c-1.09,1.71 -2.71,2.56 -4.84,2.56 -1.38,0 -2.65,-0.38 -3.8,-1.14 -1.16,-0.76 -2.05,-1.82 -2.69,-3.17 -0.63,-1.36 -0.95,-2.92 -0.95,-4.69 0,-1.72 0.29,-3.29 0.86,-4.69 0.58,-1.4 1.44,-2.48 2.59,-3.22 1.14,-0.75 2.43,-1.12 3.85,-1.12 1.04,0 1.97,0.22 2.78,0.66 0.81,0.44 1.47,1.02 1.98,1.72l0 -8.59 2.93 0 0 23.88 -2.73 0zm-9.27 -8.63c0,2.21 0.47,3.86 1.41,4.96 0.93,1.09 2.04,1.64 3.31,1.64 1.28,0 2.37,-0.52 3.27,-1.57 0.9,-1.04 1.35,-2.64 1.35,-4.79 0,-2.36 -0.46,-4.09 -1.37,-5.2 -0.91,-1.11 -2.04,-1.66 -3.38,-1.66 -1.31,0 -2.4,0.53 -3.27,1.59 -0.87,1.06 -1.31,2.73 -1.31,5.02z"/>
   <path id="16" class="fil0" d="M313.66 211.29l3.03 0.4c-0.47,1.76 -1.36,3.13 -2.65,4.11 -1.29,0.97 -2.94,1.46 -4.94,1.46 -2.52,0 -4.52,-0.78 -6,-2.33 -1.48,-1.55 -2.22,-3.74 -2.22,-6.54 0,-2.9 0.74,-5.16 2.24,-6.76 1.5,-1.61 3.44,-2.41 5.82,-2.41 2.31,0 4.19,0.78 5.65,2.36 1.46,1.57 2.2,3.79 2.2,6.64 0,0.17 -0.01,0.43 -0.02,0.78l-12.89 0c0.11,1.9 0.64,3.35 1.61,4.36 0.96,1.01 2.17,1.51 3.61,1.51 1.07,0 1.99,-0.28 2.75,-0.85 0.76,-0.57 1.36,-1.47 1.81,-2.72zm-9.6 -4.7l9.64 0c-0.13,-1.46 -0.5,-2.55 -1.11,-3.27 -0.93,-1.13 -2.14,-1.7 -3.62,-1.7 -1.35,0 -2.47,0.45 -3.39,1.35 -0.91,0.9 -1.42,2.11 -1.52,3.62z"/>
   <polygon id="17" class="fil0" points="320.34,216.9 320.34,193.02 323.27,193.02 323.27,216.9 "/>
   <path id="18" class="fil0" d="M339.12 214.73c-1.09,0.93 -2.14,1.58 -3.15,1.96 -1.01,0.38 -2.08,0.57 -3.24,0.57 -1.9,0 -3.36,-0.46 -4.39,-1.39 -1.02,-0.92 -1.53,-2.11 -1.53,-3.55 0,-0.84 0.19,-1.62 0.58,-2.32 0.39,-0.7 0.89,-1.26 1.52,-1.68 0.63,-0.42 1.33,-0.74 2.11,-0.96 0.58,-0.15 1.45,-0.29 2.61,-0.44 2.37,-0.28 4.12,-0.62 5.24,-1.01 0.01,-0.4 0.02,-0.66 0.02,-0.76 0,-1.19 -0.28,-2.03 -0.83,-2.52 -0.75,-0.66 -1.87,-0.99 -3.35,-0.99 -1.38,0 -2.41,0.24 -3.06,0.73 -0.66,0.48 -1.15,1.34 -1.46,2.57l-2.87 -0.4c0.26,-1.23 0.69,-2.22 1.29,-2.98 0.6,-0.76 1.47,-1.33 2.6,-1.75 1.13,-0.41 2.45,-0.61 3.94,-0.61 1.48,0 2.68,0.17 3.61,0.52 0.92,0.35 1.61,0.78 2.04,1.31 0.43,0.53 0.74,1.19 0.92,2 0.09,0.5 0.14,1.4 0.14,2.7l0 3.89c0,2.72 0.06,4.44 0.18,5.16 0.12,0.73 0.36,1.42 0.72,2.09l-3.07 0c-0.29,-0.62 -0.48,-1.34 -0.57,-2.17zm-0.23 -6.5c-1.07,0.43 -2.67,0.8 -4.8,1.1 -1.21,0.17 -2.07,0.37 -2.57,0.58 -0.5,0.22 -0.88,0.53 -1.16,0.94 -0.27,0.42 -0.41,0.88 -0.41,1.39 0,0.77 0.29,1.42 0.89,1.94 0.59,0.52 1.46,0.78 2.6,0.78 1.13,0 2.13,-0.24 3.02,-0.74 0.88,-0.49 1.53,-1.16 1.94,-2.01 0.32,-0.66 0.47,-1.63 0.47,-2.92l0.02 -1.07z"/>
   <path id="19" class="fil0" d="M345.82 218.33l2.83 0.4c0.12,0.88 0.45,1.52 1,1.92 0.73,0.54 1.72,0.81 2.98,0.81 1.36,0 2.41,-0.27 3.15,-0.81 0.74,-0.54 1.24,-1.3 1.5,-2.27 0.15,-0.59 0.22,-1.85 0.21,-3.75 -1.28,1.51 -2.88,2.27 -4.79,2.27 -2.38,0 -4.22,-0.86 -5.52,-2.57 -1.31,-1.71 -1.96,-3.77 -1.96,-6.16 0,-1.65 0.3,-3.17 0.89,-4.57 0.59,-1.4 1.46,-2.47 2.6,-3.23 1.13,-0.76 2.47,-1.14 4,-1.14 2.04,0 3.72,0.83 5.05,2.5l0 -2.13 2.7 0 0 14.95c0,2.7 -0.27,4.6 -0.82,5.73 -0.54,1.12 -1.42,2.01 -2.6,2.66 -1.19,0.65 -2.65,0.98 -4.39,0.98 -2.06,0 -3.72,-0.46 -4.99,-1.39 -1.27,-0.92 -1.88,-2.32 -1.84,-4.18zm2.4 -10.38c0,2.26 0.45,3.91 1.35,4.95 0.91,1.04 2.03,1.56 3.39,1.56 1.35,0 2.48,-0.52 3.4,-1.55 0.91,-1.03 1.37,-2.66 1.37,-4.87 0,-2.11 -0.47,-3.71 -1.41,-4.78 -0.94,-1.07 -2.07,-1.61 -3.4,-1.61 -1.31,0 -2.41,0.53 -3.33,1.58 -0.91,1.06 -1.37,2.62 -1.37,4.71z"/>
   <path id="20" class="fil0" d="M376.72 211.29l3.03 0.4c-0.47,1.76 -1.36,3.13 -2.65,4.11 -1.29,0.97 -2.94,1.46 -4.94,1.46 -2.52,0 -4.52,-0.78 -6,-2.33 -1.48,-1.55 -2.22,-3.74 -2.22,-6.54 0,-2.9 0.74,-5.16 2.24,-6.76 1.5,-1.61 3.44,-2.41 5.82,-2.41 2.31,0 4.19,0.78 5.65,2.36 1.46,1.57 2.2,3.79 2.2,6.64 0,0.17 -0.01,0.43 -0.02,0.78l-12.89 0c0.11,1.9 0.64,3.35 1.61,4.36 0.96,1.01 2.17,1.51 3.61,1.51 1.07,0 1.99,-0.28 2.75,-0.85 0.76,-0.57 1.36,-1.47 1.81,-2.72zm-9.6 -4.7l9.64 0c-0.13,-1.46 -0.5,-2.55 -1.11,-3.27 -0.93,-1.13 -2.14,-1.7 -3.62,-1.7 -1.35,0 -2.47,0.45 -3.39,1.35 -0.91,0.9 -1.42,2.11 -1.52,3.62z"/>
   <path id="21" class="fil0" d="M383.46 216.9l0 -17.31 2.63 0 0 2.45c0.54,-0.84 1.26,-1.53 2.16,-2.04 0.9,-0.52 1.92,-0.77 3.07,-0.77 1.28,0 2.33,0.27 3.15,0.79 0.82,0.53 1.39,1.27 1.73,2.23 1.38,-2.02 3.16,-3.02 5.36,-3.02 1.72,0 3.05,0.47 3.97,1.42 0.93,0.95 1.39,2.41 1.39,4.39l0 11.87 -2.93 0 0 -10.89c0,-1.17 -0.1,-2.01 -0.29,-2.53 -0.19,-0.52 -0.53,-0.93 -1.04,-1.25 -0.5,-0.32 -1.09,-0.47 -1.76,-0.47 -1.22,0 -2.23,0.41 -3.04,1.21 -0.81,0.81 -1.21,2.11 -1.21,3.89l0 10.04 -2.93 0 0 -11.23c0,-1.3 -0.24,-2.28 -0.72,-2.93 -0.48,-0.65 -1.26,-0.98 -2.35,-0.98 -0.82,0 -1.58,0.22 -2.28,0.65 -0.7,0.43 -1.21,1.07 -1.52,1.91 -0.31,0.83 -0.47,2.04 -0.47,3.61l0 8.97 -2.93 0z"/>
   <path id="22" class="fil0" d="M432.31 211.29l3.03 0.4c-0.47,1.76 -1.36,3.13 -2.65,4.11 -1.29,0.97 -2.94,1.46 -4.94,1.46 -2.52,0 -4.52,-0.78 -6,-2.33 -1.48,-1.55 -2.22,-3.74 -2.22,-6.54 0,-2.9 0.74,-5.16 2.24,-6.76 1.5,-1.61 3.44,-2.41 5.82,-2.41 2.31,0 4.19,0.78 5.65,2.36 1.46,1.57 2.2,3.79 2.2,6.64 0,0.17 -0.01,0.43 -0.02,0.78l-12.89 0c0.11,1.9 0.64,3.35 1.61,4.36 0.96,1.01 2.17,1.51 3.61,1.51 1.07,0 1.99,-0.28 2.75,-0.85 0.76,-0.57 1.36,-1.47 1.81,-2.72zm-9.6 -4.7l9.64 0c-0.13,-1.46 -0.5,-2.55 -1.11,-3.27 -0.93,-1.13 -2.14,-1.7 -3.62,-1.7 -1.35,0 -2.47,0.45 -3.39,1.35 -0.91,0.9 -1.42,2.11 -1.52,3.62z"/>
   <path id="23" class="fil0" d="M448.68 216.9l0 -23.88 9.02 0c1.58,0 2.8,0.08 3.64,0.23 1.17,0.19 2.16,0.57 2.95,1.11 0.79,0.55 1.43,1.32 1.92,2.3 0.48,0.98 0.72,2.07 0.72,3.25 0,2.02 -0.64,3.74 -1.94,5.14 -1.29,1.41 -3.63,2.11 -7.01,2.11l-6.13 0 0 9.74 -3.17 0zm3.17 -12.54l6.17 0c2.05,0 3.49,-0.38 4.35,-1.14 0.86,-0.76 1.28,-1.83 1.28,-3.21 0,-1 -0.25,-1.85 -0.76,-2.56 -0.51,-0.71 -1.17,-1.18 -2,-1.41 -0.53,-0.14 -1.52,-0.21 -2.95,-0.21l-6.11 0 0 8.54z"/>
   <path id="24" class="fil0" d="M470.53 216.9l0 -17.31 2.63 0 0 2.65c0.67,-1.23 1.3,-2.04 1.87,-2.43 0.57,-0.39 1.2,-0.59 1.88,-0.59 0.99,0 2,0.31 3.02,0.93l-1.04 2.71c-0.71,-0.4 -1.42,-0.6 -2.13,-0.6 -0.64,0 -1.21,0.19 -1.72,0.58 -0.51,0.38 -0.87,0.92 -1.08,1.6 -0.33,1.04 -0.49,2.18 -0.49,3.42l0 9.04 -2.93 0z"/>
   <path id="25" class="fil0" d="M480.57 208.24c0,-3.2 0.89,-5.56 2.67,-7.1 1.48,-1.28 3.3,-1.92 5.44,-1.92 2.37,0 4.32,0.78 5.83,2.33 1.51,1.55 2.26,3.7 2.26,6.44 0,2.22 -0.33,3.97 -1,5.24 -0.67,1.27 -1.64,2.26 -2.92,2.97 -1.27,0.71 -2.67,1.06 -4.17,1.06 -2.42,0 -4.38,-0.77 -5.87,-2.32 -1.5,-1.55 -2.24,-3.79 -2.24,-6.7zm3 0.01c0,2.21 0.48,3.87 1.45,4.96 0.97,1.1 2.19,1.65 3.66,1.65 1.46,0 2.67,-0.55 3.64,-1.66 0.97,-1.11 1.45,-2.79 1.45,-5.05 0,-2.13 -0.49,-3.75 -1.46,-4.85 -0.97,-1.1 -2.18,-1.65 -3.63,-1.65 -1.47,0 -2.69,0.54 -3.66,1.64 -0.97,1.1 -1.45,2.75 -1.45,4.95z"/>
   <path id="26" class="fil0" d="M506.58 214.28l0.4 2.59c-0.82,0.17 -1.56,0.26 -2.21,0.26 -1.06,0 -1.88,-0.17 -2.47,-0.51 -0.58,-0.34 -1,-0.78 -1.23,-1.33 -0.24,-0.55 -0.36,-1.71 -0.36,-3.47l0 -9.97 -2.17 0 0 -2.27 2.17 0 0 -4.28 2.93 -1.76 0 6.04 2.93 0 0 2.27 -2.93 0 0 10.14c0,0.84 0.05,1.38 0.16,1.62 0.1,0.24 0.27,0.43 0.5,0.57 0.23,0.14 0.57,0.21 1,0.21 0.32,0 0.75,-0.04 1.28,-0.12z"/>
   <path id="27" class="fil0" d="M508.38 208.24c0,-3.2 0.89,-5.56 2.67,-7.1 1.48,-1.28 3.3,-1.92 5.44,-1.92 2.37,0 4.32,0.78 5.83,2.33 1.51,1.55 2.26,3.7 2.26,6.44 0,2.22 -0.33,3.97 -1,5.24 -0.67,1.27 -1.64,2.26 -2.92,2.97 -1.27,0.71 -2.67,1.06 -4.17,1.06 -2.42,0 -4.38,-0.77 -5.87,-2.32 -1.5,-1.55 -2.24,-3.79 -2.24,-6.7zm3 0.01c0,2.21 0.48,3.87 1.45,4.96 0.97,1.1 2.19,1.65 3.66,1.65 1.46,0 2.67,-0.55 3.64,-1.66 0.97,-1.11 1.45,-2.79 1.45,-5.05 0,-2.13 -0.49,-3.75 -1.46,-4.85 -0.97,-1.1 -2.18,-1.65 -3.63,-1.65 -1.47,0 -2.69,0.54 -3.66,1.64 -0.97,1.1 -1.45,2.75 -1.45,4.95z"/>
   <path id="28" class="fil0" d="M534.4 214.28l0.4 2.59c-0.82,0.17 -1.56,0.26 -2.21,0.26 -1.06,0 -1.88,-0.17 -2.47,-0.51 -0.58,-0.34 -1,-0.78 -1.23,-1.33 -0.24,-0.55 -0.36,-1.71 -0.36,-3.47l0 -9.97 -2.17 0 0 -2.27 2.17 0 0 -4.28 2.93 -1.76 0 6.04 2.93 0 0 2.27 -2.93 0 0 10.14c0,0.84 0.05,1.38 0.16,1.62 0.1,0.24 0.27,0.43 0.5,0.57 0.23,0.14 0.57,0.21 1,0.21 0.32,0 0.75,-0.04 1.28,-0.12z"/>
   <path id="29" class="fil0" d="M537.29 196.35l0 -3.33 2.93 0 0 3.33 -2.93 0zm0 20.54l0 -17.31 2.93 0 0 17.31 -2.93 0z"/>
   <path id="30" class="fil0" d="M544.7 223.53l0 -23.94 2.67 0 0 2.27c0.63,-0.88 1.34,-1.54 2.13,-1.98 0.79,-0.44 1.75,-0.66 2.88,-0.66 1.48,0 2.78,0.38 3.91,1.14 1.13,0.76 1.98,1.83 2.56,3.21 0.57,1.38 0.86,2.9 0.86,4.55 0,1.76 -0.32,3.35 -0.95,4.77 -0.63,1.41 -1.56,2.5 -2.77,3.25 -1.21,0.75 -2.48,1.13 -3.81,1.13 -0.98,0 -1.86,-0.21 -2.63,-0.62 -0.78,-0.41 -1.41,-0.93 -1.91,-1.56l0 8.44 -2.93 0zm2.67 -15.19c0,2.22 0.45,3.86 1.35,4.92 0.9,1.06 1.99,1.6 3.27,1.6 1.3,0 2.41,-0.55 3.33,-1.65 0.93,-1.1 1.39,-2.8 1.39,-5.11 0,-2.2 -0.45,-3.85 -1.36,-4.94 -0.91,-1.1 -1.98,-1.64 -3.24,-1.64 -1.25,0 -2.35,0.58 -3.3,1.75 -0.96,1.17 -1.44,2.86 -1.44,5.08z"/>
   <path id="31" class="fil0" d="M574.55 214.73c-1.09,0.93 -2.14,1.58 -3.15,1.96 -1.01,0.38 -2.08,0.57 -3.24,0.57 -1.9,0 -3.36,-0.46 -4.39,-1.39 -1.02,-0.92 -1.53,-2.11 -1.53,-3.55 0,-0.84 0.19,-1.62 0.58,-2.32 0.39,-0.7 0.89,-1.26 1.52,-1.68 0.63,-0.42 1.33,-0.74 2.11,-0.96 0.58,-0.15 1.45,-0.29 2.61,-0.44 2.37,-0.28 4.12,-0.62 5.24,-1.01 0.01,-0.4 0.02,-0.66 0.02,-0.76 0,-1.19 -0.28,-2.03 -0.83,-2.52 -0.75,-0.66 -1.87,-0.99 -3.35,-0.99 -1.38,0 -2.41,0.24 -3.06,0.73 -0.66,0.48 -1.15,1.34 -1.46,2.57l-2.87 -0.4c0.26,-1.23 0.69,-2.22 1.29,-2.98 0.6,-0.76 1.47,-1.33 2.6,-1.75 1.13,-0.41 2.45,-0.61 3.94,-0.61 1.48,0 2.68,0.17 3.61,0.52 0.92,0.35 1.61,0.78 2.04,1.31 0.43,0.53 0.74,1.19 0.92,2 0.09,0.5 0.14,1.4 0.14,2.7l0 3.89c0,2.72 0.06,4.44 0.18,5.16 0.12,0.73 0.36,1.42 0.72,2.09l-3.07 0c-0.29,-0.62 -0.48,-1.34 -0.57,-2.17zm-0.23 -6.5c-1.07,0.43 -2.67,0.8 -4.8,1.1 -1.21,0.17 -2.07,0.37 -2.57,0.58 -0.5,0.22 -0.88,0.53 -1.16,0.94 -0.27,0.42 -0.41,0.88 -0.41,1.39 0,0.77 0.29,1.42 0.89,1.94 0.59,0.52 1.46,0.78 2.6,0.78 1.13,0 2.13,-0.24 3.02,-0.74 0.88,-0.49 1.53,-1.16 1.94,-2.01 0.32,-0.66 0.47,-1.63 0.47,-2.92l0.02 -1.07z"/>
   <path id="32" class="fil0" d="M581.26 218.33l2.83 0.4c0.12,0.88 0.45,1.52 1,1.92 0.73,0.54 1.72,0.81 2.98,0.81 1.36,0 2.41,-0.27 3.15,-0.81 0.74,-0.54 1.24,-1.3 1.5,-2.27 0.15,-0.59 0.22,-1.85 0.21,-3.75 -1.28,1.51 -2.88,2.27 -4.79,2.27 -2.38,0 -4.22,-0.86 -5.52,-2.57 -1.31,-1.71 -1.96,-3.77 -1.96,-6.16 0,-1.65 0.3,-3.17 0.89,-4.57 0.59,-1.4 1.46,-2.47 2.6,-3.23 1.13,-0.76 2.47,-1.14 4,-1.14 2.04,0 3.72,0.83 5.05,2.5l0 -2.13 2.7 0 0 14.95c0,2.7 -0.27,4.6 -0.82,5.73 -0.54,1.12 -1.42,2.01 -2.6,2.66 -1.19,0.65 -2.65,0.98 -4.39,0.98 -2.06,0 -3.72,-0.46 -4.99,-1.39 -1.27,-0.92 -1.88,-2.32 -1.84,-4.18zm2.4 -10.38c0,2.26 0.45,3.91 1.35,4.95 0.91,1.04 2.03,1.56 3.39,1.56 1.35,0 2.48,-0.52 3.4,-1.55 0.91,-1.03 1.37,-2.66 1.37,-4.87 0,-2.11 -0.47,-3.71 -1.41,-4.78 -0.94,-1.07 -2.07,-1.61 -3.4,-1.61 -1.31,0 -2.41,0.53 -3.33,1.58 -0.91,1.06 -1.37,2.62 -1.37,4.71z"/>
   <path id="33" class="fil0" d="M612.15 211.29l3.03 0.4c-0.47,1.76 -1.36,3.13 -2.65,4.11 -1.29,0.97 -2.94,1.46 -4.94,1.46 -2.52,0 -4.52,-0.78 -6,-2.33 -1.48,-1.55 -2.22,-3.74 -2.22,-6.54 0,-2.9 0.74,-5.16 2.24,-6.76 1.5,-1.61 3.44,-2.41 5.82,-2.41 2.31,0 4.19,0.78 5.65,2.36 1.46,1.57 2.2,3.79 2.2,6.64 0,0.17 -0.01,0.43 -0.02,0.78l-12.89 0c0.11,1.9 0.64,3.35 1.61,4.36 0.96,1.01 2.17,1.51 3.61,1.51 1.07,0 1.99,-0.28 2.75,-0.85 0.76,-0.57 1.36,-1.47 1.81,-2.72zm-9.6 -4.7l9.64 0c-0.13,-1.46 -0.5,-2.55 -1.11,-3.27 -0.93,-1.13 -2.14,-1.7 -3.62,-1.7 -1.35,0 -2.47,0.45 -3.39,1.35 -0.91,0.9 -1.42,2.11 -1.52,3.62z"/>
   <path id="34" class="fil0" d="M618.89 216.9l0 -17.31 2.63 0 0 2.45c0.54,-0.84 1.26,-1.53 2.16,-2.04 0.9,-0.52 1.92,-0.77 3.07,-0.77 1.28,0 2.33,0.27 3.15,0.79 0.82,0.53 1.39,1.27 1.73,2.23 1.38,-2.02 3.16,-3.02 5.36,-3.02 1.72,0 3.05,0.47 3.97,1.42 0.93,0.95 1.39,2.41 1.39,4.39l0 11.87 -2.93 0 0 -10.89c0,-1.17 -0.1,-2.01 -0.29,-2.53 -0.19,-0.52 -0.53,-0.93 -1.04,-1.25 -0.5,-0.32 -1.09,-0.47 -1.76,-0.47 -1.22,0 -2.23,0.41 -3.04,1.21 -0.81,0.81 -1.21,2.11 -1.21,3.89l0 10.04 -2.93 0 0 -11.23c0,-1.3 -0.24,-2.28 -0.72,-2.93 -0.48,-0.65 -1.26,-0.98 -2.35,-0.98 -0.82,0 -1.58,0.22 -2.28,0.65 -0.7,0.43 -1.21,1.07 -1.52,1.91 -0.31,0.83 -0.47,2.04 -0.47,3.61l0 8.97 -2.93 0z"/>
   <polygon id="35" class="fil0" points="656.84,216.9 656.84,193.02 660.01,193.02 660.01,216.9 "/>
   <path id="36" class="fil0" d="M665.2 216.9l0 -17.31 2.63 0 0 2.46c1.27,-1.88 3.1,-2.82 5.5,-2.82 1.04,0 2,0.19 2.87,0.56 0.87,0.37 1.53,0.87 1.96,1.47 0.43,0.61 0.74,1.33 0.91,2.16 0.11,0.55 0.16,1.5 0.16,2.85l0 10.63 -2.94 0 0 -10.52c0,-1.19 -0.11,-2.09 -0.34,-2.68 -0.23,-0.59 -0.63,-1.06 -1.21,-1.42 -0.58,-0.35 -1.26,-0.53 -2.04,-0.53 -1.25,0 -2.32,0.39 -3.22,1.19 -0.91,0.79 -1.36,2.3 -1.36,4.51l0 9.44 -2.93 0z"/>
   <path id="37" class="fil0" d="M694.92 216.9l0 -2.2c-1.09,1.71 -2.71,2.56 -4.84,2.56 -1.38,0 -2.65,-0.38 -3.8,-1.14 -1.16,-0.76 -2.05,-1.82 -2.69,-3.17 -0.63,-1.36 -0.95,-2.92 -0.95,-4.69 0,-1.72 0.29,-3.29 0.86,-4.69 0.58,-1.4 1.44,-2.48 2.59,-3.22 1.14,-0.75 2.43,-1.12 3.85,-1.12 1.04,0 1.97,0.22 2.78,0.66 0.81,0.44 1.47,1.02 1.98,1.72l0 -8.59 2.93 0 0 23.88 -2.73 0zm-9.27 -8.63c0,2.21 0.47,3.86 1.41,4.96 0.93,1.09 2.04,1.64 3.31,1.64 1.28,0 2.37,-0.52 3.27,-1.57 0.9,-1.04 1.35,-2.64 1.35,-4.79 0,-2.36 -0.46,-4.09 -1.37,-5.2 -0.91,-1.11 -2.04,-1.66 -3.38,-1.66 -1.31,0 -2.4,0.53 -3.27,1.59 -0.87,1.06 -1.31,2.73 -1.31,5.02z"/>
   <path id="38" class="fil0" d="M713.6 216.9l0 -2.57c-1.35,1.96 -3.17,2.94 -5.47,2.94 -1.02,0 -1.97,-0.19 -2.85,-0.58 -0.88,-0.39 -1.54,-0.88 -1.97,-1.47 -0.43,-0.6 -0.73,-1.32 -0.9,-2.17 -0.12,-0.58 -0.18,-1.49 -0.18,-2.73l0 -10.71 2.93 0 0 9.58c0,1.53 0.06,2.56 0.18,3.09 0.18,0.77 0.57,1.37 1.17,1.81 0.6,0.44 1.33,0.66 2.21,0.66 0.88,0 1.7,-0.22 2.47,-0.67 0.77,-0.45 1.31,-1.07 1.63,-1.84 0.32,-0.77 0.48,-1.9 0.48,-3.37l0 -9.25 2.93 0 0 17.31 -2.63 0z"/>
   <path id="39" class="fil0" d="M719.68 211.73l2.9 -0.47c0.16,1.16 0.62,2.05 1.36,2.67 0.74,0.62 1.79,0.93 3.12,0.93 1.35,0 2.35,-0.27 3.01,-0.82 0.65,-0.55 0.98,-1.19 0.98,-1.93 0,-0.66 -0.29,-1.18 -0.88,-1.56 -0.41,-0.26 -1.41,-0.59 -3,-0.99 -2.15,-0.54 -3.63,-1.01 -4.46,-1.4 -0.83,-0.4 -1.46,-0.94 -1.88,-1.65 -0.43,-0.69 -0.64,-1.47 -0.64,-2.31 0,-0.77 0.18,-1.48 0.53,-2.14 0.36,-0.66 0.83,-1.2 1.44,-1.63 0.46,-0.33 1.08,-0.62 1.86,-0.85 0.79,-0.23 1.63,-0.35 2.53,-0.35 1.36,0 2.55,0.19 3.57,0.59 1.03,0.39 1.78,0.92 2.27,1.59 0.48,0.67 0.82,1.57 1.01,2.69l-2.87 0.4c-0.13,-0.9 -0.51,-1.61 -1.13,-2.11 -0.62,-0.51 -1.5,-0.76 -2.64,-0.76 -1.34,0 -2.3,0.22 -2.87,0.67 -0.57,0.44 -0.86,0.97 -0.86,1.56 0,0.38 0.12,0.72 0.36,1.03 0.24,0.31 0.61,0.57 1.12,0.78 0.29,0.11 1.15,0.36 2.58,0.75 2.07,0.55 3.51,1.01 4.34,1.36 0.82,0.35 1.47,0.87 1.93,1.53 0.47,0.67 0.71,1.51 0.71,2.51 0,0.97 -0.28,1.89 -0.86,2.75 -0.57,0.86 -1.39,1.53 -2.47,2 -1.08,0.47 -2.3,0.71 -3.65,0.71 -2.25,0 -3.96,-0.47 -5.14,-1.39 -1.18,-0.93 -1.93,-2.31 -2.26,-4.14z"/>
   <path id="40" class="fil0" d="M743.89 214.28l0.4 2.59c-0.82,0.17 -1.56,0.26 -2.21,0.26 -1.06,0 -1.88,-0.17 -2.47,-0.51 -0.58,-0.34 -1,-0.78 -1.23,-1.33 -0.24,-0.55 -0.36,-1.71 -0.36,-3.47l0 -9.97 -2.17 0 0 -2.27 2.17 0 0 -4.28 2.93 -1.76 0 6.04 2.93 0 0 2.27 -2.93 0 0 10.14c0,0.84 0.05,1.38 0.16,1.62 0.1,0.24 0.27,0.43 0.5,0.57 0.23,0.14 0.57,0.21 1,0.21 0.32,0 0.75,-0.04 1.28,-0.12z"/>
   <path id="41" class="fil0" d="M746.75 216.9l0 -17.31 2.63 0 0 2.65c0.67,-1.23 1.3,-2.04 1.87,-2.43 0.57,-0.39 1.2,-0.59 1.88,-0.59 0.99,0 2,0.31 3.02,0.93l-1.04 2.71c-0.71,-0.4 -1.42,-0.6 -2.13,-0.6 -0.64,0 -1.21,0.19 -1.72,0.58 -0.51,0.38 -0.87,0.92 -1.08,1.6 -0.33,1.04 -0.49,2.18 -0.49,3.42l0 9.04 -2.93 0z"/>
   <path id="42" class="fil0" d="M757.89 196.35l0 -3.33 2.93 0 0 3.33 -2.93 0zm0 20.54l0 -17.31 2.93 0 0 17.31 -2.93 0z"/>
   <path id="43" class="fil0" d="M776.61 214.73c-1.09,0.93 -2.14,1.58 -3.15,1.96 -1.01,0.38 -2.08,0.57 -3.24,0.57 -1.9,0 -3.36,-0.46 -4.39,-1.39 -1.02,-0.92 -1.53,-2.11 -1.53,-3.55 0,-0.84 0.19,-1.62 0.58,-2.32 0.39,-0.7 0.89,-1.26 1.52,-1.68 0.63,-0.42 1.33,-0.74 2.11,-0.96 0.58,-0.15 1.45,-0.29 2.61,-0.44 2.37,-0.28 4.12,-0.62 5.24,-1.01 0.01,-0.4 0.02,-0.66 0.02,-0.76 0,-1.19 -0.28,-2.03 -0.83,-2.52 -0.75,-0.66 -1.87,-0.99 -3.35,-0.99 -1.38,0 -2.41,0.24 -3.06,0.73 -0.66,0.48 -1.15,1.34 -1.46,2.57l-2.87 -0.4c0.26,-1.23 0.69,-2.22 1.29,-2.98 0.6,-0.76 1.47,-1.33 2.6,-1.75 1.13,-0.41 2.45,-0.61 3.94,-0.61 1.48,0 2.68,0.17 3.61,0.52 0.92,0.35 1.61,0.78 2.04,1.31 0.43,0.53 0.74,1.19 0.92,2 0.09,0.5 0.14,1.4 0.14,2.7l0 3.89c0,2.72 0.06,4.44 0.18,5.16 0.12,0.73 0.36,1.42 0.72,2.09l-3.07 0c-0.29,-0.62 -0.48,-1.34 -0.57,-2.17zm-0.23 -6.5c-1.07,0.43 -2.67,0.8 -4.8,1.1 -1.21,0.17 -2.07,0.37 -2.57,0.58 -0.5,0.22 -0.88,0.53 -1.16,0.94 -0.27,0.42 -0.41,0.88 -0.41,1.39 0,0.77 0.29,1.42 0.89,1.94 0.59,0.52 1.46,0.78 2.6,0.78 1.13,0 2.13,-0.24 3.02,-0.74 0.88,-0.49 1.53,-1.16 1.94,-2.01 0.32,-0.66 0.47,-1.63 0.47,-2.92l0.02 -1.07z"/>
   <polygon id="44" class="fil0" points="783.78,216.9 783.78,193.02 786.72,193.02 786.72,216.9 "/>
   <g>
    <g>
     <polygon class="fil0" points="755.21,20.49 799.59,20.49 786.83,146.8 742.45,146.8 "/>
     <path class="fil0" d="M628.39 20.49l73.58 0c16.03,0 27.69,3.35 35,10.09 7.28,6.73 10.32,16.32 9.06,28.76 -1.29,12.76 -6.66,22.76 -16.09,29.93 -9.42,7.2 -23.08,10.79 -40.94,10.79l-24.26 0 -4.72 46.75 -44.39 0 12.76 -126.32zm38.94 53.99l10.9 0c8.6,0 14.76,-1.32 18.49,-3.94 3.73,-2.62 5.8,-5.97 6.21,-10.06 0.4,-3.97 -0.76,-7.32 -3.51,-10.09 -2.72,-2.76 -8.25,-4.15 -16.58,-4.15l-12.66 0 -2.85 28.23z"/>
     <polygon class="fil0" points="459.05,20.49 517.4,20.49 531.87,97.35 561.92,20.49 620.01,20.49 607.25,146.8 571.06,146.8 580.79,50.51 543.14,146.8 510.34,146.8 492.21,50.51 482.49,146.8 446.3,146.8 "/>
     <path class="fil0" d="M400.93 125.99l-50.12 0 -9.3 20.82 -45.15 0 66.64 -126.32 48.42 0 40.89 126.32 -46.32 0 -5.06 -20.82zm-6.6 -27.35l-11.04 -45.4 -20.28 45.4 31.32 0z"/>
     <polygon class="fil0" points="209.72,20.49 253.91,20.49 244.29,115.75 313.47,115.75 310.33,146.8 196.97,146.8 "/>
    </g>
    <path class="fil1" d="M166.68 46.09l0 82.72c0.04,0.58 -0.14,1.07 -0.65,1.42l-75.27 36.47c-1.34,0.76 -2.58,0.77 -3.72,0.13l-86.88 -43.74c-0.12,-0.04 -0.15,-0.16 -0.14,-0.32l0 -84.44c-0.05,-0.83 0.29,-1.27 0.84,-1.51l74.68 -36.3c1.59,-0.72 3.25,-0.75 4.76,0.19l84.86 42.61c0.98,0.51 1.55,1.45 1.53,2.76zm-69.89 38.66l61.83 -29.96 0 70.15 -61.83 29.96 0 -70.15zm-77.7 -46.73l59.92 -29.12 68.59 34.44 -60.11 29.12 -68.4 -34.44z"/>
   </g>
  </g>
 </g>
</svg>
