<?xml version="1.0" encoding="UTF-8"?>
<!DOCTYPE svg PUBLIC "-//W3C//DTD SVG 1.1//EN" "http://www.w3.org/Graphics/SVG/1.1/DTD/svg11.dtd">
<!-- Creator: CorelDRAW 2020 (64 Bit) -->
<svg xmlns="http://www.w3.org/2000/svg" xml:space="preserve" width="4.86454in" height="2.91497in" version="1.1" style="shape-rendering:geometricPrecision; text-rendering:geometricPrecision; image-rendering:optimizeQuality; fill-rule:evenodd; clip-rule:evenodd"
viewBox="0 0 506.83 303.7"
 xmlns:xlink="http://www.w3.org/1999/xlink"
 xmlns:xodm="http://www.corel.com/coreldraw/odm/2003">
 <defs>
  <style type="text/css">
   <![CDATA[
    .fil1 {fill:white}
    .fil0 {fill:white;fill-rule:nonzero}
   ]]>
  </style>
 </defs>
 <g id="Camada_x0020_1">
  <metadata id="CorelCorpID_0Corel-Layer"/>
  <g id="_2094065852544">
   <g>
    <path class="fil0" d="M304.27 201.22l11.19 -145.75 77.39 0c14.35,0 25.24,1.19 32.61,3.6 7.41,2.37 13.19,6.82 17.35,13.27 4.16,6.48 5.86,14.38 5.14,23.68 -0.62,8.07 -2.94,15.06 -6.96,20.93 -3.99,5.9 -9.25,10.65 -15.79,14.32 -4.13,2.31 -9.74,4.24 -16.75,5.77 5.39,1.8 9.28,3.56 11.66,5.36 1.59,1.19 3.87,3.77 6.83,7.67 2.92,3.9 4.86,6.92 5.78,9.06l19.34 42.1 -52.48 0 -21.39 -44.44c-2.71,-5.77 -5.22,-9.5 -7.54,-11.23 -3.19,-2.24 -6.91,-3.36 -11.15,-3.36l-4.09 0 -4.53 59.03 -46.6 0zm53.25 -86.51l19.63 0c2.1,0 6.28,-0.68 12.47,-2 3.12,-0.58 5.76,-2.1 7.87,-4.58 2.15,-2.48 3.35,-5.29 3.59,-8.48 0.36,-4.72 -0.9,-8.35 -3.78,-10.86 -2.88,-2.54 -8.56,-3.8 -17.06,-3.8l-20.43 0 -2.28 29.72z"/>
    <path class="fil1" d="M319.32 203.31c117.71,-53.25 191.24,-131.69 164.23,-175.21 -22.07,-35.56 -104.44,-36.78 -198.06,-6.99 79.85,-23.81 148.44,-20.61 168.37,12.29 26.08,43.06 -41.11,120.68 -150.06,173.37 -20.99,10.15 -41.99,18.63 -62.42,25.4 25.29,-7.3 51.6,-16.94 77.94,-28.86z"/>
    <path class="fil1" d="M367.9 169.82l4.39 0 0 6.18c-10.25,6 -21.04,11.85 -32.3,17.48l0 -5.99c9.79,-5.73 19.11,-11.64 27.91,-17.66z"/>
    <path class="fil1" d="M334.02 190.92l3.58 0 0 3.74c-5.97,2.95 -12.06,5.84 -18.29,8.65 -5.16,2.34 -10.33,4.58 -15.48,6.74l0 -3.31c10.46,-5.06 20.54,-10.35 30.19,-15.82z"/>
    <path class="fil1" d="M187.17 66.48c-117.38,47.36 -187.78,121.5 -162.85,157.5 24.94,36 101.4,30.87 194.87,4.57 -79.74,20.98 -141.81,25.42 -165.19,-9.15 -23.38,-34.57 40.05,-109.01 148.68,-155.93 20.92,-9.04 41.88,-16.56 62.27,-22.55 -25.26,6.43 -51.52,14.96 -77.78,25.56z"/>
    <path class="fil1" d="M132.11 92.37l7.83 0 0 4.1c-12.38,7.86 -23.67,15.98 -33.77,24.17l0 -13.05c8.17,-5.17 16.82,-10.27 25.93,-15.23z"/>
    <polygon class="fil0" points="192.78,55.47 317.06,55.47 314.67,86.61 236.99,86.61 235.21,109.82 287.48,109.82 285.19,139.54 232.93,139.54 230.73,168.24 310.71,168.24 308.18,201.22 181.59,201.22 "/>
    <path class="fil1" d="M81.01 124.94c-22.71,17.1 -39.87,34.5 -50.25,50.54l0 0.11 26.42 0c5.47,-10.25 13.64,-21.17 24.23,-32.27l0 -18.38 -0.4 0z"/>
    <path class="fil1" d="M30.75 175.6l26.41 0c2.42,-4.54 5.38,-9.22 8.85,-13.98l2.02 -26.37c-16.34,13.72 -28.98,27.41 -37.28,40.24l0 0.11z"/>
    <polygon class="fil0" points="304.27,201.22 315.46,55.47 354.71,55.47 354.71,151.29 350.88,201.22 "/>
    <polygon class="fil0" points="74.16,55.47 120.55,55.47 112.11,165.39 184.75,165.39 182,201.22 62.97,201.22 "/>
   </g>
   <polygon class="fil0" points="-0,297.03 -0,274.28 3.02,274.28 3.02,294.36 14.2,294.36 14.2,297.03 "/>
   <path id="1" class="fil0" d="M28.22 294.97c-1.04,0.88 -2.04,1.5 -3,1.87 -0.96,0.37 -1.99,0.55 -3.09,0.55 -1.81,0 -3.2,-0.44 -4.18,-1.32 -0.97,-0.88 -1.46,-2.01 -1.46,-3.38 0,-0.8 0.19,-1.54 0.55,-2.21 0.37,-0.67 0.85,-1.2 1.45,-1.6 0.6,-0.4 1.27,-0.71 2.01,-0.92 0.55,-0.14 1.38,-0.28 2.49,-0.42 2.26,-0.26 3.92,-0.59 4.99,-0.96 0.01,-0.38 0.02,-0.63 0.02,-0.73 0,-1.13 -0.26,-1.93 -0.79,-2.4 -0.71,-0.63 -1.78,-0.94 -3.19,-0.94 -1.32,0 -2.29,0.23 -2.92,0.69 -0.63,0.46 -1.09,1.28 -1.39,2.45l-2.73 -0.38c0.25,-1.17 0.66,-2.12 1.23,-2.84 0.57,-0.72 1.4,-1.27 2.48,-1.66 1.08,-0.39 2.33,-0.58 3.75,-0.58 1.41,0 2.56,0.16 3.44,0.5 0.88,0.33 1.53,0.75 1.94,1.25 0.41,0.5 0.7,1.14 0.87,1.91 0.09,0.48 0.14,1.33 0.14,2.57l0 3.71c0,2.59 0.06,4.23 0.17,4.92 0.11,0.69 0.34,1.36 0.68,1.99l-2.92 0c-0.28,-0.59 -0.46,-1.28 -0.54,-2.07zm-0.22 -6.2c-1.02,0.41 -2.54,0.76 -4.58,1.05 -1.15,0.16 -1.97,0.35 -2.45,0.56 -0.48,0.21 -0.84,0.51 -1.1,0.9 -0.26,0.4 -0.39,0.84 -0.39,1.32 0,0.74 0.28,1.36 0.85,1.85 0.57,0.49 1.39,0.74 2.48,0.74 1.07,0 2.03,-0.23 2.88,-0.7 0.84,-0.47 1.46,-1.11 1.85,-1.92 0.3,-0.63 0.45,-1.56 0.45,-2.78l0.02 -1.02z"/>
   <path id="2" class="fil0" d="M37.69 297.03l-2.61 0 0 -22.75 2.8 0 0 8.12c1.18,-1.47 2.68,-2.21 4.52,-2.21 1.01,0 1.98,0.2 2.88,0.61 0.91,0.41 1.65,0.99 2.23,1.72 0.58,0.74 1.04,1.63 1.37,2.67 0.33,1.04 0.5,2.16 0.5,3.34 0,2.82 -0.7,5 -2.09,6.53 -1.4,1.54 -3.07,2.31 -5.03,2.31 -1.94,0 -3.47,-0.81 -4.58,-2.43l0 2.08zm-0.03 -8.37c0,1.97 0.27,3.39 0.8,4.27 0.88,1.43 2.07,2.16 3.56,2.16 1.22,0 2.28,-0.53 3.16,-1.59 0.89,-1.06 1.33,-2.64 1.33,-4.73 0,-2.15 -0.42,-3.73 -1.28,-4.76 -0.85,-1.02 -1.89,-1.54 -3.09,-1.54 -1.22,0 -2.28,0.53 -3.16,1.59 -0.89,1.06 -1.33,2.59 -1.33,4.6z"/>
   <path id="3" class="fil0" d="M51.74 288.79c0,-3.04 0.85,-5.3 2.55,-6.77 1.41,-1.22 3.15,-1.83 5.18,-1.83 2.26,0 4.11,0.74 5.55,2.22 1.43,1.48 2.16,3.53 2.16,6.14 0,2.12 -0.32,3.78 -0.95,4.99 -0.64,1.21 -1.56,2.16 -2.78,2.83 -1.21,0.67 -2.54,1.01 -3.98,1.01 -2.31,0 -4.17,-0.74 -5.6,-2.21 -1.42,-1.48 -2.13,-3.61 -2.13,-6.38zm2.86 0.01c0,2.11 0.46,3.69 1.38,4.73 0.93,1.05 2.09,1.57 3.49,1.57 1.39,0 2.54,-0.52 3.47,-1.58 0.92,-1.05 1.38,-2.66 1.38,-4.81 0,-2.03 -0.47,-3.57 -1.39,-4.62 -0.93,-1.05 -2.08,-1.57 -3.46,-1.57 -1.4,0 -2.56,0.52 -3.49,1.56 -0.92,1.04 -1.38,2.62 -1.38,4.72z"/>
   <path id="4" class="fil0" d="M70.43 297.03l0 -16.49 2.51 0 0 2.53c0.64,-1.17 1.23,-1.94 1.78,-2.31 0.55,-0.38 1.14,-0.56 1.8,-0.56 0.94,0 1.9,0.3 2.88,0.88l-1 2.58c-0.68,-0.38 -1.36,-0.57 -2.03,-0.57 -0.61,0 -1.15,0.19 -1.64,0.55 -0.48,0.37 -0.83,0.87 -1.03,1.53 -0.31,0.99 -0.47,2.08 -0.47,3.26l0 8.62 -2.8 0z"/>
   <path id="5" class="fil0" d="M91.81 294.97c-1.04,0.88 -2.04,1.5 -3,1.87 -0.96,0.37 -1.99,0.55 -3.09,0.55 -1.81,0 -3.2,-0.44 -4.18,-1.32 -0.97,-0.88 -1.46,-2.01 -1.46,-3.38 0,-0.8 0.19,-1.54 0.55,-2.21 0.37,-0.67 0.85,-1.2 1.45,-1.6 0.6,-0.4 1.27,-0.71 2.01,-0.92 0.55,-0.14 1.38,-0.28 2.49,-0.42 2.26,-0.26 3.92,-0.59 4.99,-0.96 0.01,-0.38 0.02,-0.63 0.02,-0.73 0,-1.13 -0.26,-1.93 -0.79,-2.4 -0.71,-0.63 -1.78,-0.94 -3.19,-0.94 -1.32,0 -2.29,0.23 -2.92,0.69 -0.63,0.46 -1.09,1.28 -1.39,2.45l-2.73 -0.38c0.25,-1.17 0.66,-2.12 1.23,-2.84 0.57,-0.72 1.4,-1.27 2.48,-1.66 1.08,-0.39 2.33,-0.58 3.75,-0.58 1.41,0 2.56,0.16 3.44,0.5 0.88,0.33 1.53,0.75 1.94,1.25 0.41,0.5 0.7,1.14 0.87,1.91 0.09,0.48 0.14,1.33 0.14,2.57l0 3.71c0,2.59 0.06,4.23 0.17,4.92 0.11,0.69 0.34,1.36 0.68,1.99l-2.92 0c-0.28,-0.59 -0.46,-1.28 -0.54,-2.07zm-0.22 -6.2c-1.02,0.41 -2.54,0.76 -4.58,1.05 -1.15,0.16 -1.97,0.35 -2.45,0.56 -0.48,0.21 -0.84,0.51 -1.1,0.9 -0.26,0.4 -0.39,0.84 -0.39,1.32 0,0.74 0.28,1.36 0.85,1.85 0.57,0.49 1.39,0.74 2.48,0.74 1.07,0 2.03,-0.23 2.88,-0.7 0.84,-0.47 1.46,-1.11 1.85,-1.92 0.3,-0.63 0.45,-1.56 0.45,-2.78l0.02 -1.02z"/>
   <path id="6" class="fil0" d="M104.78 294.54l0.38 2.47c-0.78,0.16 -1.49,0.25 -2.1,0.25 -1.01,0 -1.79,-0.16 -2.36,-0.48 -0.56,-0.32 -0.95,-0.74 -1.18,-1.27 -0.23,-0.52 -0.34,-1.63 -0.34,-3.3l0 -9.5 -2.07 0 0 -2.16 2.07 0 0 -4.08 2.8 -1.68 0 5.76 2.8 0 0 2.16 -2.8 0 0 9.66c0,0.8 0.05,1.31 0.15,1.54 0.1,0.23 0.25,0.41 0.48,0.55 0.22,0.13 0.54,0.2 0.95,0.2 0.31,0 0.71,-0.04 1.22,-0.11z"/>
   <path id="7" class="fil0" d="M106.49 288.79c0,-3.04 0.85,-5.3 2.55,-6.77 1.41,-1.22 3.15,-1.83 5.18,-1.83 2.26,0 4.11,0.74 5.55,2.22 1.43,1.48 2.16,3.53 2.16,6.14 0,2.12 -0.32,3.78 -0.95,4.99 -0.64,1.21 -1.56,2.16 -2.78,2.83 -1.21,0.67 -2.54,1.01 -3.98,1.01 -2.31,0 -4.17,-0.74 -5.6,-2.21 -1.42,-1.48 -2.13,-3.61 -2.13,-6.38zm2.86 0.01c0,2.11 0.46,3.69 1.38,4.73 0.93,1.05 2.09,1.57 3.49,1.57 1.39,0 2.54,-0.52 3.47,-1.58 0.92,-1.05 1.38,-2.66 1.38,-4.81 0,-2.03 -0.47,-3.57 -1.39,-4.62 -0.93,-1.05 -2.08,-1.57 -3.46,-1.57 -1.4,0 -2.56,0.52 -3.49,1.56 -0.92,1.04 -1.38,2.62 -1.38,4.72zm2.54 -10.28l2.03 -4.35 3.69 0 -3.4 4.35 -2.32 0z"/>
   <path id="8" class="fil0" d="M125.18 297.03l0 -16.49 2.51 0 0 2.53c0.64,-1.17 1.23,-1.94 1.78,-2.31 0.55,-0.38 1.14,-0.56 1.8,-0.56 0.94,0 1.9,0.3 2.88,0.88l-1 2.58c-0.68,-0.38 -1.36,-0.57 -2.03,-0.57 -0.61,0 -1.15,0.19 -1.64,0.55 -0.48,0.37 -0.83,0.87 -1.03,1.53 -0.31,0.99 -0.47,2.08 -0.47,3.26l0 8.62 -2.8 0z"/>
   <path id="9" class="fil0" d="M135.79 277.46l0 -3.18 2.8 0 0 3.18 -2.8 0zm0 19.57l0 -16.49 2.8 0 0 16.49 -2.8 0z"/>
   <path id="10" class="fil0" d="M141.8 288.79c0,-3.04 0.85,-5.3 2.55,-6.77 1.41,-1.22 3.15,-1.83 5.18,-1.83 2.26,0 4.11,0.74 5.55,2.22 1.43,1.48 2.16,3.53 2.16,6.14 0,2.12 -0.32,3.78 -0.95,4.99 -0.64,1.21 -1.56,2.16 -2.78,2.83 -1.21,0.67 -2.54,1.01 -3.98,1.01 -2.31,0 -4.17,-0.74 -5.6,-2.21 -1.42,-1.48 -2.13,-3.61 -2.13,-6.38zm2.86 0.01c0,2.11 0.46,3.69 1.38,4.73 0.93,1.05 2.09,1.57 3.49,1.57 1.39,0 2.54,-0.52 3.47,-1.58 0.92,-1.05 1.38,-2.66 1.38,-4.81 0,-2.03 -0.47,-3.57 -1.39,-4.62 -0.93,-1.05 -2.08,-1.57 -3.46,-1.57 -1.4,0 -2.56,0.52 -3.49,1.56 -0.92,1.04 -1.38,2.62 -1.38,4.72z"/>
   <path id="11" class="fil0" d="M179.99 297.03l0 -2.09c-1.04,1.63 -2.58,2.44 -4.61,2.44 -1.31,0 -2.52,-0.36 -3.62,-1.09 -1.1,-0.72 -1.95,-1.73 -2.56,-3.02 -0.6,-1.3 -0.91,-2.79 -0.91,-4.47 0,-1.64 0.28,-3.13 0.82,-4.47 0.55,-1.33 1.37,-2.36 2.47,-3.07 1.09,-0.71 2.32,-1.07 3.67,-1.07 1,0 1.88,0.21 2.65,0.63 0.77,0.42 1.4,0.97 1.89,1.64l0 -8.18 2.8 0 0 22.75 -2.61 0zm-8.83 -8.22c0,2.11 0.45,3.68 1.34,4.72 0.89,1.04 1.94,1.56 3.16,1.56 1.22,0 2.26,-0.5 3.12,-1.49 0.85,-1 1.28,-2.52 1.28,-4.56 0,-2.25 -0.43,-3.9 -1.31,-4.95 -0.87,-1.05 -1.94,-1.58 -3.22,-1.58 -1.24,0 -2.28,0.5 -3.12,1.51 -0.83,1.01 -1.25,2.61 -1.25,4.78z"/>
   <path id="12" class="fil0" d="M198.26 291.69l2.89 0.38c-0.45,1.68 -1.29,2.99 -2.52,3.91 -1.23,0.93 -2.8,1.39 -4.71,1.39 -2.4,0 -4.31,-0.74 -5.72,-2.22 -1.41,-1.48 -2.11,-3.56 -2.11,-6.23 0,-2.76 0.71,-4.91 2.13,-6.44 1.42,-1.53 3.27,-2.29 5.54,-2.29 2.2,0 3.99,0.75 5.39,2.24 1.39,1.5 2.09,3.61 2.09,6.32 0,0.16 -0.01,0.41 -0.02,0.74l-12.28 0c0.11,1.81 0.61,3.19 1.54,4.15 0.92,0.96 2.06,1.44 3.44,1.44 1.02,0 1.9,-0.27 2.62,-0.81 0.73,-0.54 1.3,-1.4 1.72,-2.59zm-9.15 -4.48l9.18 0c-0.12,-1.39 -0.48,-2.43 -1.05,-3.12 -0.88,-1.08 -2.04,-1.61 -3.45,-1.61 -1.28,0 -2.36,0.43 -3.23,1.29 -0.87,0.86 -1.35,2.01 -1.45,3.45z"/>
   <polygon id="13" class="fil0" points="213.93,297.03 213.93,274.28 230.35,274.28 230.35,276.95 216.94,276.95 216.94,283.94 229.49,283.94 229.49,286.61 216.94,286.61 216.94,294.36 230.89,294.36 230.89,297.03 "/>
   <path id="14" class="fil0" d="M234.7 297.03l0 -16.49 2.51 0 0 2.34c1.21,-1.8 2.95,-2.69 5.24,-2.69 1,0 1.91,0.18 2.74,0.53 0.83,0.35 1.46,0.83 1.87,1.4 0.41,0.58 0.7,1.27 0.87,2.06 0.1,0.52 0.15,1.42 0.15,2.72l0 10.12 -2.8 0 0 -10.02c0,-1.14 -0.11,-1.99 -0.32,-2.55 -0.22,-0.56 -0.6,-1.01 -1.15,-1.35 -0.55,-0.33 -1.2,-0.5 -1.94,-0.5 -1.19,0 -2.21,0.38 -3.07,1.13 -0.86,0.75 -1.29,2.19 -1.29,4.29l0 9 -2.8 0z"/>
   <path id="15" class="fil0" d="M251.86 298.4l2.7 0.38c0.11,0.84 0.43,1.45 0.95,1.83 0.69,0.51 1.64,0.77 2.84,0.77 1.29,0 2.29,-0.26 3,-0.77 0.7,-0.51 1.18,-1.24 1.43,-2.17 0.14,-0.57 0.21,-1.76 0.2,-3.57 -1.22,1.44 -2.74,2.16 -4.56,2.16 -2.27,0 -4.02,-0.82 -5.26,-2.45 -1.24,-1.63 -1.86,-3.59 -1.86,-5.87 0,-1.57 0.29,-3.02 0.85,-4.35 0.57,-1.33 1.39,-2.35 2.47,-3.08 1.08,-0.73 2.35,-1.09 3.81,-1.09 1.94,0 3.55,0.79 4.81,2.38l0 -2.03 2.57 0 0 14.24c0,2.57 -0.26,4.38 -0.78,5.45 -0.52,1.07 -1.35,1.92 -2.48,2.54 -1.13,0.62 -2.53,0.93 -4.18,0.93 -1.96,0 -3.55,-0.44 -4.76,-1.32 -1.21,-0.88 -1.79,-2.21 -1.75,-3.98zm2.29 -9.89c0,2.16 0.43,3.73 1.29,4.72 0.86,0.99 1.94,1.49 3.23,1.49 1.29,0 2.36,-0.49 3.24,-1.48 0.87,-0.98 1.3,-2.53 1.3,-4.64 0,-2.01 -0.45,-3.53 -1.35,-4.55 -0.9,-1.02 -1.98,-1.53 -3.24,-1.53 -1.24,0 -2.3,0.5 -3.17,1.51 -0.87,1.01 -1.3,2.5 -1.3,4.49z"/>
   <path id="16" class="fil0" d="M281.29 291.69l2.89 0.38c-0.45,1.68 -1.29,2.99 -2.52,3.91 -1.23,0.93 -2.8,1.39 -4.71,1.39 -2.4,0 -4.31,-0.74 -5.72,-2.22 -1.41,-1.48 -2.11,-3.56 -2.11,-6.23 0,-2.76 0.71,-4.91 2.13,-6.44 1.42,-1.53 3.27,-2.29 5.54,-2.29 2.2,0 3.99,0.75 5.39,2.24 1.39,1.5 2.09,3.61 2.09,6.32 0,0.16 -0.01,0.41 -0.02,0.74l-12.28 0c0.11,1.81 0.61,3.19 1.54,4.15 0.92,0.96 2.06,1.44 3.44,1.44 1.02,0 1.9,-0.27 2.62,-0.81 0.73,-0.54 1.3,-1.4 1.72,-2.59zm-9.15 -4.48l9.18 0c-0.12,-1.39 -0.48,-2.43 -1.05,-3.12 -0.88,-1.08 -2.04,-1.61 -3.45,-1.61 -1.28,0 -2.36,0.43 -3.23,1.29 -0.87,0.86 -1.35,2.01 -1.45,3.45z"/>
   <path id="17" class="fil0" d="M287.72 297.03l0 -16.49 2.51 0 0 2.34c1.21,-1.8 2.95,-2.69 5.24,-2.69 1,0 1.91,0.18 2.74,0.53 0.83,0.35 1.46,0.83 1.87,1.4 0.41,0.58 0.7,1.27 0.87,2.06 0.1,0.52 0.15,1.42 0.15,2.72l0 10.12 -2.8 0 0 -10.02c0,-1.14 -0.11,-1.99 -0.32,-2.55 -0.22,-0.56 -0.6,-1.01 -1.15,-1.35 -0.55,-0.33 -1.2,-0.5 -1.94,-0.5 -1.19,0 -2.21,0.38 -3.07,1.13 -0.86,0.75 -1.29,2.19 -1.29,4.29l0 9 -2.8 0z"/>
   <path id="18" class="fil0" d="M305.39 297.03l0 -22.75 2.8 0 0 8.19c1.3,-1.52 2.93,-2.28 4.91,-2.28 1.21,0 2.27,0.24 3.17,0.72 0.9,0.48 1.54,1.14 1.92,1.99 0.39,0.85 0.58,2.08 0.58,3.69l0 10.44 -2.8 0 0 -10.43c0,-1.39 -0.3,-2.41 -0.9,-3.04 -0.6,-0.64 -1.45,-0.95 -2.55,-0.95 -0.82,0 -1.59,0.21 -2.32,0.64 -0.73,0.43 -1.24,1.01 -1.55,1.75 -0.31,0.73 -0.46,1.74 -0.46,3.03l0 9 -2.8 0z"/>
   <path id="19" class="fil0" d="M333.83 294.97c-1.04,0.88 -2.04,1.5 -3,1.87 -0.96,0.37 -1.99,0.55 -3.09,0.55 -1.81,0 -3.2,-0.44 -4.18,-1.32 -0.97,-0.88 -1.46,-2.01 -1.46,-3.38 0,-0.8 0.19,-1.54 0.55,-2.21 0.37,-0.67 0.85,-1.2 1.45,-1.6 0.6,-0.4 1.27,-0.71 2.01,-0.92 0.55,-0.14 1.38,-0.28 2.49,-0.42 2.26,-0.26 3.92,-0.59 4.99,-0.96 0.01,-0.38 0.02,-0.63 0.02,-0.73 0,-1.13 -0.26,-1.93 -0.79,-2.4 -0.71,-0.63 -1.78,-0.94 -3.19,-0.94 -1.32,0 -2.29,0.23 -2.92,0.69 -0.63,0.46 -1.09,1.28 -1.39,2.45l-2.73 -0.38c0.25,-1.17 0.66,-2.12 1.23,-2.84 0.57,-0.72 1.4,-1.27 2.48,-1.66 1.08,-0.39 2.33,-0.58 3.75,-0.58 1.41,0 2.56,0.16 3.44,0.5 0.88,0.33 1.53,0.75 1.94,1.25 0.41,0.5 0.7,1.14 0.87,1.91 0.09,0.48 0.14,1.33 0.14,2.57l0 3.71c0,2.59 0.06,4.23 0.17,4.92 0.11,0.69 0.34,1.36 0.68,1.99l-2.92 0c-0.28,-0.59 -0.46,-1.28 -0.54,-2.07zm-0.22 -6.2c-1.02,0.41 -2.54,0.76 -4.58,1.05 -1.15,0.16 -1.97,0.35 -2.45,0.56 -0.48,0.21 -0.84,0.51 -1.1,0.9 -0.26,0.4 -0.39,0.84 -0.39,1.32 0,0.74 0.28,1.36 0.85,1.85 0.57,0.49 1.39,0.74 2.48,0.74 1.07,0 2.03,-0.23 2.88,-0.7 0.84,-0.47 1.46,-1.11 1.85,-1.92 0.3,-0.63 0.45,-1.56 0.45,-2.78l0.02 -1.02z"/>
   <path id="20" class="fil0" d="M340.7 297.03l0 -16.49 2.51 0 0 2.53c0.64,-1.17 1.23,-1.94 1.78,-2.31 0.55,-0.38 1.14,-0.56 1.8,-0.56 0.94,0 1.9,0.3 2.88,0.88l-1 2.58c-0.68,-0.38 -1.36,-0.57 -2.03,-0.57 -0.61,0 -1.15,0.19 -1.64,0.55 -0.48,0.37 -0.83,0.87 -1.03,1.53 -0.31,0.99 -0.47,2.08 -0.47,3.26l0 8.62 -2.8 0z"/>
   <path id="21" class="fil0" d="M351.31 277.46l0 -3.18 2.8 0 0 3.18 -2.8 0zm0 19.57l0 -16.49 2.8 0 0 16.49 -2.8 0z"/>
   <path id="22" class="fil0" d="M369.14 294.97c-1.04,0.88 -2.04,1.5 -3,1.87 -0.96,0.37 -1.99,0.55 -3.09,0.55 -1.81,0 -3.2,-0.44 -4.18,-1.32 -0.97,-0.88 -1.46,-2.01 -1.46,-3.38 0,-0.8 0.19,-1.54 0.55,-2.21 0.37,-0.67 0.85,-1.2 1.45,-1.6 0.6,-0.4 1.27,-0.71 2.01,-0.92 0.55,-0.14 1.38,-0.28 2.49,-0.42 2.26,-0.26 3.92,-0.59 4.99,-0.96 0.01,-0.38 0.02,-0.63 0.02,-0.73 0,-1.13 -0.26,-1.93 -0.79,-2.4 -0.71,-0.63 -1.78,-0.94 -3.19,-0.94 -1.32,0 -2.29,0.23 -2.92,0.69 -0.63,0.46 -1.09,1.28 -1.39,2.45l-2.73 -0.38c0.25,-1.17 0.66,-2.12 1.23,-2.84 0.57,-0.72 1.4,-1.27 2.48,-1.66 1.08,-0.39 2.33,-0.58 3.75,-0.58 1.41,0 2.56,0.16 3.44,0.5 0.88,0.33 1.53,0.75 1.94,1.25 0.41,0.5 0.7,1.14 0.87,1.91 0.09,0.48 0.14,1.33 0.14,2.57l0 3.71c0,2.59 0.06,4.23 0.17,4.92 0.11,0.69 0.34,1.36 0.68,1.99l-2.92 0c-0.28,-0.59 -0.46,-1.28 -0.54,-2.07zm-0.22 -6.2c-1.02,0.41 -2.54,0.76 -4.58,1.05 -1.15,0.16 -1.97,0.35 -2.45,0.56 -0.48,0.21 -0.84,0.51 -1.1,0.9 -0.26,0.4 -0.39,0.84 -0.39,1.32 0,0.74 0.28,1.36 0.85,1.85 0.57,0.49 1.39,0.74 2.48,0.74 1.07,0 2.03,-0.23 2.88,-0.7 0.84,-0.47 1.46,-1.11 1.85,-1.92 0.3,-0.63 0.45,-1.56 0.45,-2.78l0.02 -1.02z"/>
   <path id="23" class="fil0" d="M385.28 297.03l0 -22.75 10.08 0c2.03,0 3.57,0.21 4.62,0.61 1.05,0.41 1.9,1.13 2.53,2.16 0.63,1.03 0.94,2.18 0.94,3.43 0,1.61 -0.52,2.98 -1.57,4.08 -1.04,1.11 -2.65,1.81 -4.83,2.11 0.8,0.38 1.4,0.76 1.82,1.13 0.88,0.8 1.71,1.82 2.49,3.03l3.93 6.2 -3.76 0 -3.01 -4.73c-0.87,-1.37 -1.6,-2.41 -2.17,-3.14 -0.57,-0.73 -1.08,-1.23 -1.53,-1.52 -0.44,-0.29 -0.91,-0.49 -1.37,-0.6 -0.34,-0.07 -0.89,-0.11 -1.67,-0.11l-3.48 0 0 10.1 -3.02 0zm3.02 -12.71l6.46 0c1.38,0 2.45,-0.14 3.22,-0.43 0.77,-0.28 1.36,-0.74 1.76,-1.37 0.4,-0.62 0.6,-1.3 0.6,-2.04 0,-1.08 -0.39,-1.96 -1.16,-2.66 -0.78,-0.69 -2.01,-1.04 -3.69,-1.04l-7.19 0 0 7.53z"/>
   <path id="24" class="fil0" d="M406.76 288.79c0,-3.04 0.85,-5.3 2.55,-6.77 1.41,-1.22 3.15,-1.83 5.18,-1.83 2.26,0 4.11,0.74 5.55,2.22 1.43,1.48 2.16,3.53 2.16,6.14 0,2.12 -0.32,3.78 -0.95,4.99 -0.64,1.21 -1.56,2.16 -2.78,2.83 -1.21,0.67 -2.54,1.01 -3.98,1.01 -2.31,0 -4.17,-0.74 -5.6,-2.21 -1.42,-1.48 -2.13,-3.61 -2.13,-6.38zm2.86 0.01c0,2.11 0.46,3.69 1.38,4.73 0.93,1.05 2.09,1.57 3.49,1.57 1.39,0 2.54,-0.52 3.47,-1.58 0.92,-1.05 1.38,-2.66 1.38,-4.81 0,-2.03 -0.47,-3.57 -1.39,-4.62 -0.93,-1.05 -2.08,-1.57 -3.46,-1.57 -1.4,0 -2.56,0.52 -3.49,1.56 -0.92,1.04 -1.38,2.62 -1.38,4.72z"/>
   <path id="25" class="fil0" d="M428.05 297.03l-2.61 0 0 -22.75 2.8 0 0 8.12c1.18,-1.47 2.68,-2.21 4.52,-2.21 1.01,0 1.98,0.2 2.88,0.61 0.91,0.41 1.65,0.99 2.23,1.72 0.58,0.74 1.04,1.63 1.37,2.67 0.33,1.04 0.5,2.16 0.5,3.34 0,2.82 -0.7,5 -2.09,6.53 -1.4,1.54 -3.07,2.31 -5.03,2.31 -1.94,0 -3.47,-0.81 -4.58,-2.43l0 2.08zm-0.03 -8.37c0,1.97 0.27,3.39 0.8,4.27 0.88,1.43 2.07,2.16 3.56,2.16 1.22,0 2.28,-0.53 3.16,-1.59 0.89,-1.06 1.33,-2.64 1.33,-4.73 0,-2.15 -0.42,-3.73 -1.28,-4.76 -0.85,-1.02 -1.89,-1.54 -3.09,-1.54 -1.22,0 -2.28,0.53 -3.16,1.59 -0.89,1.06 -1.33,2.59 -1.33,4.6z"/>
   <path id="26" class="fil0" d="M442.1 288.79c0,-3.04 0.85,-5.3 2.55,-6.77 1.41,-1.22 3.15,-1.83 5.18,-1.83 2.26,0 4.11,0.74 5.55,2.22 1.43,1.48 2.16,3.53 2.16,6.14 0,2.12 -0.32,3.78 -0.95,4.99 -0.64,1.21 -1.56,2.16 -2.78,2.83 -1.21,0.67 -2.54,1.01 -3.98,1.01 -2.31,0 -4.17,-0.74 -5.6,-2.21 -1.42,-1.48 -2.13,-3.61 -2.13,-6.38zm2.86 0.01c0,2.11 0.46,3.69 1.38,4.73 0.93,1.05 2.09,1.57 3.49,1.57 1.39,0 2.54,-0.52 3.47,-1.58 0.92,-1.05 1.38,-2.66 1.38,-4.81 0,-2.03 -0.47,-3.57 -1.39,-4.62 -0.93,-1.05 -2.08,-1.57 -3.46,-1.57 -1.4,0 -2.56,0.52 -3.49,1.56 -0.92,1.04 -1.38,2.62 -1.38,4.72zm2.54 -10.28l2.03 -4.35 3.69 0 -3.4 4.35 -2.32 0z"/>
   <path id="27" class="fil0" d="M466.89 294.54l0.38 2.47c-0.78,0.16 -1.49,0.25 -2.1,0.25 -1.01,0 -1.79,-0.16 -2.36,-0.48 -0.56,-0.32 -0.95,-0.74 -1.18,-1.27 -0.23,-0.52 -0.34,-1.63 -0.34,-3.3l0 -9.5 -2.07 0 0 -2.16 2.07 0 0 -4.08 2.8 -1.68 0 5.76 2.8 0 0 2.16 -2.8 0 0 9.66c0,0.8 0.05,1.31 0.15,1.54 0.1,0.23 0.25,0.41 0.48,0.55 0.22,0.13 0.54,0.2 0.95,0.2 0.31,0 0.71,-0.04 1.22,-0.11z"/>
   <path id="28" class="fil0" d="M469.65 277.46l0 -3.18 2.8 0 0 3.18 -2.8 0zm0 19.57l0 -16.49 2.8 0 0 16.49 -2.8 0z"/>
   <path id="29" class="fil0" d="M487.48 291l2.73 0.38c-0.3,1.88 -1.06,3.35 -2.3,4.41 -1.23,1.06 -2.75,1.59 -4.55,1.59 -2.25,0 -4.06,-0.74 -5.43,-2.21 -1.37,-1.47 -2.05,-3.58 -2.05,-6.32 0,-1.78 0.3,-3.33 0.88,-4.67 0.59,-1.33 1.48,-2.33 2.69,-2.99 1.2,-0.67 2.51,-1 3.93,-1 1.78,0 3.25,0.45 4.38,1.36 1.14,0.91 1.87,2.19 2.19,3.85l-2.7 0.41c-0.26,-1.11 -0.71,-1.94 -1.38,-2.5 -0.66,-0.56 -1.45,-0.84 -2.38,-0.84 -1.41,0 -2.55,0.5 -3.44,1.51 -0.88,1.01 -1.32,2.6 -1.32,4.78 0,2.21 0.42,3.82 1.27,4.82 0.85,1 1.96,1.5 3.32,1.5 1.1,0 2.02,-0.33 2.75,-1.01 0.74,-0.67 1.2,-1.7 1.4,-3.09z"/>
   <path id="30" class="fil0" d="M503.36 294.97c-1.04,0.88 -2.04,1.5 -3,1.87 -0.96,0.37 -1.99,0.55 -3.09,0.55 -1.81,0 -3.2,-0.44 -4.18,-1.32 -0.97,-0.88 -1.46,-2.01 -1.46,-3.38 0,-0.8 0.19,-1.54 0.55,-2.21 0.37,-0.67 0.85,-1.2 1.45,-1.6 0.6,-0.4 1.27,-0.71 2.01,-0.92 0.55,-0.14 1.38,-0.28 2.49,-0.42 2.26,-0.26 3.92,-0.59 4.99,-0.96 0.01,-0.38 0.02,-0.63 0.02,-0.73 0,-1.13 -0.26,-1.93 -0.79,-2.4 -0.71,-0.63 -1.78,-0.94 -3.19,-0.94 -1.32,0 -2.29,0.23 -2.92,0.69 -0.63,0.46 -1.09,1.28 -1.39,2.45l-2.73 -0.38c0.25,-1.17 0.66,-2.12 1.23,-2.84 0.57,-0.72 1.4,-1.27 2.48,-1.66 1.08,-0.39 2.33,-0.58 3.75,-0.58 1.41,0 2.56,0.16 3.44,0.5 0.88,0.33 1.53,0.75 1.94,1.25 0.41,0.5 0.7,1.14 0.87,1.91 0.09,0.48 0.14,1.33 0.14,2.57l0 3.71c0,2.59 0.06,4.23 0.17,4.92 0.11,0.69 0.34,1.36 0.68,1.99l-2.92 0c-0.28,-0.59 -0.46,-1.28 -0.54,-2.07zm-0.22 -6.2c-1.02,0.41 -2.54,0.76 -4.58,1.05 -1.15,0.16 -1.97,0.35 -2.45,0.56 -0.48,0.21 -0.84,0.51 -1.1,0.9 -0.26,0.4 -0.39,0.84 -0.39,1.32 0,0.74 0.28,1.36 0.85,1.85 0.57,0.49 1.39,0.74 2.48,0.74 1.07,0 2.03,-0.23 2.88,-0.7 0.84,-0.47 1.46,-1.11 1.85,-1.92 0.3,-0.63 0.45,-1.56 0.45,-2.78l0.02 -1.02z"/>
  </g>
 </g>
</svg>
