<?xml version="1.0" encoding="UTF-8"?>
<!DOCTYPE svg PUBLIC "-//W3C//DTD SVG 1.1//EN" "http://www.w3.org/Graphics/SVG/1.1/DTD/svg11.dtd">
<!-- Creator: CorelDRAW 2020 (64 Bit) -->
<svg xmlns="http://www.w3.org/2000/svg" xml:space="preserve" width="3.98136in" height="2.04007in" version="1.1" style="shape-rendering:geometricPrecision; text-rendering:geometricPrecision; image-rendering:optimizeQuality; fill-rule:evenodd; clip-rule:evenodd"
viewBox="0 0 172.45 88.36"
 xmlns:xlink="http://www.w3.org/1999/xlink"
 xmlns:xodm="http://www.corel.com/coreldraw/odm/2003">
 <defs>
  <style type="text/css">
   <![CDATA[
    .fil0 {fill:white;fill-rule:nonzero}
   ]]>
  </style>
 </defs>
 <g id="Camada_x0020_1">
  <metadata id="CorelCorpID_0Corel-Layer"/>
  <g id="_2094065472720">
   <polygon class="fil0" points="-0,85.51 -0,76.05 1.29,76.05 6.25,83.48 6.25,76.05 7.45,76.05 7.45,85.51 6.16,85.51 1.2,78.09 1.2,85.51 "/>
   <path id="1" class="fil0" d="M13.88 85.51l0 -1.02c-0.53,0.78 -1.25,1.16 -2.17,1.16 -0.4,0 -0.78,-0.08 -1.13,-0.23 -0.35,-0.16 -0.61,-0.35 -0.78,-0.58 -0.17,-0.24 -0.29,-0.52 -0.36,-0.86 -0.05,-0.23 -0.07,-0.59 -0.07,-1.08l0 -4.24 1.16 0 0 3.79c0,0.61 0.02,1.01 0.07,1.22 0.07,0.31 0.23,0.54 0.46,0.72 0.24,0.17 0.53,0.26 0.87,0.26 0.35,0 0.67,-0.09 0.98,-0.27 0.3,-0.18 0.52,-0.42 0.65,-0.73 0.13,-0.31 0.19,-0.75 0.19,-1.34l0 -3.67 1.16 0 0 6.86 -1.04 0zm-2.51 -7.7l0.85 -1.81 1.53 0 -1.41 1.81 -0.96 0z"/>
   <path id="2" class="fil0" d="M21.23 83l1.14 0.16c-0.13,0.78 -0.44,1.39 -0.96,1.83 -0.51,0.44 -1.14,0.66 -1.89,0.66 -0.94,0 -1.69,-0.31 -2.26,-0.92 -0.57,-0.61 -0.85,-1.49 -0.85,-2.63 0,-0.74 0.12,-1.38 0.37,-1.94 0.24,-0.55 0.62,-0.97 1.12,-1.24 0.5,-0.28 1.04,-0.42 1.63,-0.42 0.74,0 1.35,0.19 1.82,0.56 0.47,0.38 0.78,0.91 0.91,1.6l-1.12 0.17c-0.11,-0.46 -0.3,-0.81 -0.57,-1.04 -0.27,-0.23 -0.6,-0.35 -0.99,-0.35 -0.59,0 -1.06,0.21 -1.43,0.63 -0.37,0.42 -0.55,1.08 -0.55,1.99 0,0.92 0.18,1.59 0.53,2 0.35,0.42 0.81,0.63 1.38,0.63 0.46,0 0.84,-0.14 1.14,-0.42 0.31,-0.28 0.5,-0.71 0.58,-1.29z"/>
   <polygon id="3" class="fil0" points="23.33,85.51 23.33,76.05 24.49,76.05 24.49,85.51 "/>
   <path id="4" class="fil0" d="M30.97 83.29l1.2 0.16c-0.19,0.7 -0.54,1.24 -1.05,1.63 -0.51,0.39 -1.16,0.58 -1.96,0.58 -1,0 -1.79,-0.31 -2.38,-0.92 -0.59,-0.61 -0.88,-1.48 -0.88,-2.59 0,-1.15 0.3,-2.04 0.89,-2.68 0.59,-0.64 1.36,-0.95 2.3,-0.95 0.91,0 1.66,0.31 2.24,0.93 0.58,0.62 0.87,1.5 0.87,2.63 0,0.07 -0,0.17 -0.01,0.31l-5.11 0c0.04,0.75 0.26,1.33 0.64,1.73 0.38,0.4 0.86,0.6 1.43,0.6 0.42,0 0.79,-0.11 1.09,-0.34 0.3,-0.22 0.54,-0.58 0.72,-1.08zm-3.8 -1.86l3.82 0c-0.05,-0.58 -0.2,-1.01 -0.44,-1.3 -0.37,-0.45 -0.85,-0.67 -1.44,-0.67 -0.53,0 -0.98,0.18 -1.34,0.53 -0.36,0.36 -0.56,0.83 -0.6,1.43z"/>
   <path id="5" class="fil0" d="M33.2 82.08c0,-1.27 0.35,-2.2 1.06,-2.81 0.59,-0.51 1.31,-0.76 2.16,-0.76 0.94,0 1.71,0.31 2.31,0.92 0.6,0.61 0.9,1.47 0.9,2.55 0,0.88 -0.13,1.57 -0.4,2.08 -0.26,0.5 -0.65,0.9 -1.16,1.18 -0.5,0.28 -1.06,0.42 -1.65,0.42 -0.96,0 -1.73,-0.31 -2.33,-0.92 -0.59,-0.61 -0.89,-1.5 -0.89,-2.65zm1.19 0c0,0.88 0.19,1.53 0.57,1.97 0.39,0.44 0.87,0.65 1.45,0.65 0.58,0 1.06,-0.22 1.44,-0.66 0.38,-0.44 0.57,-1.11 0.57,-2 0,-0.85 -0.19,-1.49 -0.58,-1.92 -0.39,-0.44 -0.87,-0.65 -1.44,-0.65 -0.58,0 -1.07,0.22 -1.45,0.65 -0.38,0.43 -0.57,1.09 -0.57,1.96z"/>
   <path id="6" class="fil0" d="M49.08 85.51l0 -0.87c-0.43,0.68 -1.07,1.01 -1.92,1.01 -0.55,0 -1.05,-0.15 -1.5,-0.45 -0.46,-0.3 -0.81,-0.72 -1.07,-1.26 -0.25,-0.54 -0.38,-1.16 -0.38,-1.86 0,-0.68 0.11,-1.3 0.34,-1.86 0.23,-0.55 0.57,-0.98 1.03,-1.28 0.45,-0.3 0.96,-0.44 1.53,-0.44 0.41,0 0.78,0.09 1.1,0.26 0.32,0.17 0.58,0.4 0.79,0.68l0 -3.4 1.16 0 0 9.46 -1.08 0zm-3.67 -3.42c0,0.88 0.19,1.53 0.56,1.96 0.37,0.43 0.81,0.65 1.31,0.65 0.51,0 0.94,-0.21 1.3,-0.62 0.35,-0.41 0.53,-1.05 0.53,-1.9 0,-0.93 -0.18,-1.62 -0.54,-2.06 -0.36,-0.44 -0.81,-0.66 -1.34,-0.66 -0.52,0 -0.95,0.21 -1.3,0.63 -0.35,0.42 -0.52,1.08 -0.52,1.99z"/>
   <path id="7" class="fil0" d="M56.67 83.29l1.2 0.16c-0.19,0.7 -0.54,1.24 -1.05,1.63 -0.51,0.39 -1.16,0.58 -1.96,0.58 -1,0 -1.79,-0.31 -2.38,-0.92 -0.59,-0.61 -0.88,-1.48 -0.88,-2.59 0,-1.15 0.3,-2.04 0.89,-2.68 0.59,-0.64 1.36,-0.95 2.3,-0.95 0.91,0 1.66,0.31 2.24,0.93 0.58,0.62 0.87,1.5 0.87,2.63 0,0.07 -0,0.17 -0.01,0.31l-5.11 0c0.04,0.75 0.26,1.33 0.64,1.73 0.38,0.4 0.86,0.6 1.43,0.6 0.42,0 0.79,-0.11 1.09,-0.34 0.3,-0.22 0.54,-0.58 0.72,-1.08zm-3.8 -1.86l3.82 0c-0.05,-0.58 -0.2,-1.01 -0.44,-1.3 -0.37,-0.45 -0.85,-0.67 -1.44,-0.67 -0.53,0 -0.98,0.18 -1.34,0.53 -0.36,0.36 -0.56,0.83 -0.6,1.43z"/>
   <polygon id="8" class="fil0" points="63.37,85.51 63.37,76.05 64.63,76.05 64.63,85.51 "/>
   <path id="9" class="fil0" d="M66.68 85.51l0 -6.86 1.04 0 0 0.97c0.5,-0.75 1.23,-1.12 2.18,-1.12 0.41,0 0.79,0.07 1.14,0.22 0.35,0.15 0.61,0.34 0.78,0.58 0.17,0.24 0.29,0.53 0.36,0.86 0.04,0.22 0.06,0.59 0.06,1.13l0 4.21 -1.16 0 0 -4.17c0,-0.47 -0.04,-0.83 -0.13,-1.06 -0.09,-0.23 -0.25,-0.42 -0.48,-0.56 -0.23,-0.14 -0.5,-0.21 -0.81,-0.21 -0.49,0 -0.92,0.16 -1.28,0.47 -0.36,0.31 -0.54,0.91 -0.54,1.79l0 3.74 -1.16 0z"/>
   <path id="10" class="fil0" d="M74.03 77.37l0 -1.32 1.16 0 0 1.32 -1.16 0zm0 8.14l0 -6.86 1.16 0 0 6.86 -1.16 0z"/>
   <path id="11" class="fil0" d="M81.44 83l1.14 0.16c-0.13,0.78 -0.44,1.39 -0.96,1.83 -0.51,0.44 -1.14,0.66 -1.89,0.66 -0.94,0 -1.69,-0.31 -2.26,-0.92 -0.57,-0.61 -0.85,-1.49 -0.85,-2.63 0,-0.74 0.12,-1.38 0.37,-1.94 0.24,-0.55 0.62,-0.97 1.12,-1.24 0.5,-0.28 1.04,-0.42 1.63,-0.42 0.74,0 1.35,0.19 1.82,0.56 0.47,0.38 0.78,0.91 0.91,1.6l-1.12 0.17c-0.11,-0.46 -0.3,-0.81 -0.57,-1.04 -0.27,-0.23 -0.6,-0.35 -0.99,-0.35 -0.59,0 -1.06,0.21 -1.43,0.63 -0.37,0.42 -0.55,1.08 -0.55,1.99 0,0.92 0.18,1.59 0.53,2 0.35,0.42 0.81,0.63 1.38,0.63 0.46,0 0.84,-0.14 1.14,-0.42 0.31,-0.28 0.5,-0.71 0.58,-1.29z"/>
   <path id="12" class="fil0" d="M83.57 77.37l0 -1.32 1.16 0 0 1.32 -1.16 0zm0 8.14l0 -6.86 1.16 0 0 6.86 -1.16 0z"/>
   <path id="13" class="fil0" d="M90.98 84.65c-0.43,0.37 -0.85,0.63 -1.25,0.78 -0.4,0.15 -0.83,0.23 -1.28,0.23 -0.75,0 -1.33,-0.18 -1.74,-0.55 -0.4,-0.37 -0.61,-0.83 -0.61,-1.4 0,-0.33 0.08,-0.64 0.23,-0.92 0.15,-0.28 0.35,-0.5 0.6,-0.66 0.25,-0.17 0.53,-0.29 0.84,-0.38 0.23,-0.06 0.57,-0.12 1.03,-0.17 0.94,-0.11 1.63,-0.24 2.07,-0.4 0,-0.16 0.01,-0.26 0.01,-0.3 0,-0.47 -0.11,-0.8 -0.33,-1 -0.3,-0.26 -0.74,-0.39 -1.33,-0.39 -0.55,0 -0.95,0.1 -1.21,0.29 -0.26,0.19 -0.45,0.53 -0.58,1.02l-1.14 -0.16c0.1,-0.49 0.27,-0.88 0.51,-1.18 0.24,-0.3 0.58,-0.53 1.03,-0.69 0.45,-0.16 0.97,-0.24 1.56,-0.24 0.59,0 1.06,0.07 1.43,0.21 0.37,0.14 0.64,0.31 0.81,0.52 0.17,0.21 0.29,0.47 0.36,0.79 0.04,0.2 0.06,0.55 0.06,1.07l0 1.54c0,1.08 0.02,1.76 0.07,2.05 0.05,0.29 0.14,0.56 0.28,0.83l-1.22 0c-0.12,-0.24 -0.19,-0.53 -0.22,-0.86zm-0.09 -2.58c-0.42,0.17 -1.06,0.32 -1.9,0.44 -0.48,0.07 -0.82,0.15 -1.02,0.23 -0.2,0.09 -0.35,0.21 -0.46,0.37 -0.11,0.17 -0.16,0.35 -0.16,0.55 0,0.31 0.12,0.56 0.35,0.77 0.24,0.2 0.58,0.31 1.03,0.31 0.45,0 0.85,-0.1 1.2,-0.29 0.35,-0.19 0.61,-0.46 0.77,-0.8 0.13,-0.26 0.19,-0.65 0.19,-1.16l0.01 -0.42z"/>
   <path id="14" class="fil0" d="M98.33 83l1.14 0.16c-0.13,0.78 -0.44,1.39 -0.96,1.83 -0.51,0.44 -1.14,0.66 -1.89,0.66 -0.94,0 -1.69,-0.31 -2.26,-0.92 -0.57,-0.61 -0.85,-1.49 -0.85,-2.63 0,-0.74 0.12,-1.38 0.37,-1.94 0.24,-0.55 0.62,-0.97 1.12,-1.24 0.5,-0.28 1.04,-0.42 1.63,-0.42 0.74,0 1.35,0.19 1.82,0.56 0.47,0.38 0.78,0.91 0.91,1.6l-1.12 0.17c-0.11,-0.46 -0.3,-0.81 -0.57,-1.04 -0.27,-0.23 -0.6,-0.35 -0.99,-0.35 -0.59,0 -1.06,0.21 -1.43,0.63 -0.37,0.42 -0.55,1.08 -0.55,1.99 0,0.92 0.18,1.59 0.53,2 0.35,0.42 0.81,0.63 1.38,0.63 0.46,0 0.84,-0.14 1.14,-0.42 0.31,-0.28 0.5,-0.71 0.58,-1.29zm-2.71 3.65l0.33 -1.14 0.86 0 -0.21 0.69c0.37,0.04 0.65,0.16 0.83,0.34 0.19,0.18 0.28,0.38 0.28,0.61 0,0.32 -0.16,0.61 -0.47,0.85 -0.31,0.25 -0.78,0.37 -1.41,0.37 -0.35,0 -0.67,0 -0.94,0l0.07 -0.82c0.28,0.01 0.48,0.01 0.61,0.01 0.41,0 0.7,-0.06 0.86,-0.17 0.13,-0.09 0.19,-0.19 0.19,-0.31 0,-0.08 -0.02,-0.15 -0.07,-0.2 -0.05,-0.06 -0.14,-0.11 -0.27,-0.15 -0.13,-0.04 -0.35,-0.07 -0.66,-0.07z"/>
   <path id="15" class="fil0" d="M104.93 84.65c-0.43,0.37 -0.85,0.63 -1.25,0.78 -0.4,0.15 -0.83,0.23 -1.28,0.23 -0.75,0 -1.33,-0.18 -1.74,-0.55 -0.4,-0.37 -0.61,-0.83 -0.61,-1.4 0,-0.33 0.08,-0.64 0.23,-0.92 0.15,-0.28 0.35,-0.5 0.6,-0.66 0.25,-0.17 0.53,-0.29 0.84,-0.38 0.23,-0.06 0.57,-0.12 1.03,-0.17 0.94,-0.11 1.63,-0.24 2.07,-0.4 0,-0.16 0.01,-0.26 0.01,-0.3 0,-0.47 -0.11,-0.8 -0.33,-1 -0.3,-0.26 -0.74,-0.39 -1.33,-0.39 -0.55,0 -0.95,0.1 -1.21,0.29 -0.26,0.19 -0.45,0.53 -0.58,1.02l-1.14 -0.16c0.1,-0.49 0.27,-0.88 0.51,-1.18 0.24,-0.3 0.58,-0.53 1.03,-0.69 0.45,-0.16 0.97,-0.24 1.56,-0.24 0.59,0 1.06,0.07 1.43,0.21 0.37,0.14 0.64,0.31 0.81,0.52 0.17,0.21 0.29,0.47 0.36,0.79 0.04,0.2 0.06,0.55 0.06,1.07l0 1.54c0,1.08 0.02,1.76 0.07,2.05 0.05,0.29 0.14,0.56 0.28,0.83l-1.22 0c-0.12,-0.24 -0.19,-0.53 -0.22,-0.86zm-0.09 -2.58c-0.42,0.17 -1.06,0.32 -1.9,0.44 -0.48,0.07 -0.82,0.15 -1.02,0.23 -0.2,0.09 -0.35,0.21 -0.46,0.37 -0.11,0.17 -0.16,0.35 -0.16,0.55 0,0.31 0.12,0.56 0.35,0.77 0.24,0.2 0.58,0.31 1.03,0.31 0.45,0 0.85,-0.1 1.2,-0.29 0.35,-0.19 0.61,-0.46 0.77,-0.8 0.13,-0.26 0.19,-0.65 0.19,-1.16l0.01 -0.42zm-3.78 -4.25c-0,-0.44 0.12,-0.79 0.37,-1.06 0.24,-0.26 0.56,-0.39 0.94,-0.39 0.27,0 0.63,0.11 1.09,0.34 0.25,0.13 0.46,0.19 0.61,0.19 0.14,0 0.24,-0.04 0.32,-0.11 0.07,-0.07 0.12,-0.22 0.15,-0.44l0.83 0c-0.01,0.49 -0.14,0.85 -0.37,1.1 -0.23,0.24 -0.53,0.37 -0.89,0.37 -0.27,0 -0.63,-0.12 -1.07,-0.36 -0.29,-0.16 -0.5,-0.23 -0.63,-0.23 -0.15,0 -0.26,0.05 -0.35,0.15 -0.09,0.1 -0.14,0.25 -0.14,0.45l-0.86 0z"/>
   <path id="16" class="fil0" d="M107.36 82.08c0,-1.27 0.35,-2.2 1.06,-2.81 0.59,-0.51 1.31,-0.76 2.16,-0.76 0.94,0 1.71,0.31 2.31,0.92 0.6,0.61 0.9,1.47 0.9,2.55 0,0.88 -0.13,1.57 -0.4,2.08 -0.26,0.5 -0.65,0.9 -1.16,1.18 -0.5,0.28 -1.06,0.42 -1.65,0.42 -0.96,0 -1.73,-0.31 -2.33,-0.92 -0.59,-0.61 -0.89,-1.5 -0.89,-2.65zm1.19 0c0,0.88 0.19,1.53 0.57,1.97 0.39,0.44 0.87,0.65 1.45,0.65 0.58,0 1.06,-0.22 1.44,-0.66 0.38,-0.44 0.57,-1.11 0.57,-2 0,-0.85 -0.19,-1.49 -0.58,-1.92 -0.39,-0.44 -0.87,-0.65 -1.44,-0.65 -0.58,0 -1.07,0.22 -1.45,0.65 -0.38,0.43 -0.57,1.09 -0.57,1.96z"/>
   <path id="17" class="fil0" d="M125.7 82.19l1.25 0.32c-0.26,1.03 -0.73,1.81 -1.41,2.35 -0.68,0.54 -1.51,0.81 -2.5,0.81 -1.02,0 -1.84,-0.21 -2.48,-0.62 -0.64,-0.41 -1.12,-1.01 -1.46,-1.8 -0.33,-0.79 -0.5,-1.63 -0.5,-2.53 0,-0.98 0.19,-1.84 0.56,-2.58 0.38,-0.73 0.91,-1.29 1.6,-1.67 0.69,-0.38 1.46,-0.57 2.29,-0.57 0.95,0 1.74,0.24 2.38,0.72 0.64,0.48 1.09,1.16 1.35,2.03l-1.23 0.29c-0.22,-0.69 -0.54,-1.19 -0.95,-1.5 -0.42,-0.31 -0.94,-0.47 -1.57,-0.47 -0.72,0 -1.33,0.17 -1.82,0.52 -0.49,0.35 -0.83,0.82 -1.03,1.4 -0.2,0.59 -0.3,1.19 -0.3,1.82 0,0.8 0.12,1.51 0.35,2.1 0.23,0.6 0.6,1.05 1.09,1.35 0.49,0.3 1.03,0.44 1.6,0.44 0.7,0 1.29,-0.2 1.77,-0.61 0.48,-0.4 0.81,-1 0.98,-1.8z"/>
   <path id="18" class="fil0" d="M128.35 77.37l0 -1.32 1.16 0 0 1.32 -1.16 0zm0 8.14l0 -6.86 1.16 0 0 6.86 -1.16 0z"/>
   <path id="19" class="fil0" d="M135.96 83.29l1.2 0.16c-0.19,0.7 -0.54,1.24 -1.05,1.63 -0.51,0.39 -1.16,0.58 -1.96,0.58 -1,0 -1.79,-0.31 -2.38,-0.92 -0.59,-0.61 -0.88,-1.48 -0.88,-2.59 0,-1.15 0.3,-2.04 0.89,-2.68 0.59,-0.64 1.36,-0.95 2.3,-0.95 0.91,0 1.66,0.31 2.24,0.93 0.58,0.62 0.87,1.5 0.87,2.63 0,0.07 -0,0.17 -0.01,0.31l-5.11 0c0.04,0.75 0.26,1.33 0.64,1.73 0.38,0.4 0.86,0.6 1.43,0.6 0.42,0 0.79,-0.11 1.09,-0.34 0.3,-0.22 0.54,-0.58 0.72,-1.08zm-3.8 -1.86l3.82 0c-0.05,-0.58 -0.2,-1.01 -0.44,-1.3 -0.37,-0.45 -0.85,-0.67 -1.44,-0.67 -0.53,0 -0.98,0.18 -1.34,0.53 -0.36,0.36 -0.56,0.83 -0.6,1.43z"/>
   <path id="20" class="fil0" d="M138.63 85.51l0 -6.86 1.04 0 0 0.97c0.5,-0.75 1.23,-1.12 2.18,-1.12 0.41,0 0.79,0.07 1.14,0.22 0.35,0.15 0.61,0.34 0.78,0.58 0.17,0.24 0.29,0.53 0.36,0.86 0.04,0.22 0.06,0.59 0.06,1.13l0 4.21 -1.16 0 0 -4.17c0,-0.47 -0.04,-0.83 -0.13,-1.06 -0.09,-0.23 -0.25,-0.42 -0.48,-0.56 -0.23,-0.14 -0.5,-0.21 -0.81,-0.21 -0.49,0 -0.92,0.16 -1.28,0.47 -0.36,0.31 -0.54,0.91 -0.54,1.79l0 3.74 -1.16 0z"/>
   <path id="21" class="fil0" d="M148.5 84.47l0.16 1.03c-0.33,0.07 -0.62,0.1 -0.87,0.1 -0.42,0 -0.75,-0.07 -0.98,-0.2 -0.23,-0.13 -0.39,-0.31 -0.49,-0.53 -0.09,-0.22 -0.14,-0.68 -0.14,-1.37l0 -3.95 -0.86 0 0 -0.9 0.86 0 0 -1.7 1.16 -0.7 0 2.39 1.16 0 0 0.9 -1.16 0 0 4.02c0,0.33 0.02,0.55 0.06,0.64 0.04,0.09 0.11,0.17 0.2,0.23 0.09,0.06 0.22,0.08 0.4,0.08 0.13,0 0.3,-0.02 0.51,-0.05z"/>
   <path id="22" class="fil0" d="M150.06 85.51l0 -6.86 1.16 0 0 6.86 -1.16 0zm-0.38 -7.7l0.85 -1.81 1.53 0 -1.41 1.81 -0.96 0z"/>
   <path id="23" class="fil0" d="M153.62 85.51l0 -5.96 -1.03 0 0 -0.9 1.03 0 0 -0.66c0,-0.68 0.15,-1.2 0.44,-1.56 0.29,-0.36 0.76,-0.54 1.39,-0.54 0.43,0 0.82,0.05 1.18,0.15l-0.18 0.98c-0.23,-0.04 -0.44,-0.06 -0.63,-0.06 -0.4,0 -0.68,0.08 -0.82,0.24 -0.15,0.16 -0.22,0.5 -0.22,1.01l0 0.44 1.33 0 0 0.9 -1.33 0 0 5.96 -1.16 0zm3.35 -8.14l0 -1.32 1.16 0 0 1.32 -1.16 0zm0 8.14l0 -6.86 1.16 0 0 6.86 -1.16 0z"/>
   <path id="24" class="fil0" d="M164.4 83l1.14 0.16c-0.13,0.78 -0.44,1.39 -0.96,1.83 -0.51,0.44 -1.14,0.66 -1.89,0.66 -0.94,0 -1.69,-0.31 -2.26,-0.92 -0.57,-0.61 -0.85,-1.49 -0.85,-2.63 0,-0.74 0.12,-1.38 0.37,-1.94 0.24,-0.55 0.62,-0.97 1.12,-1.24 0.5,-0.28 1.04,-0.42 1.63,-0.42 0.74,0 1.35,0.19 1.82,0.56 0.47,0.38 0.78,0.91 0.91,1.6l-1.12 0.17c-0.11,-0.46 -0.3,-0.81 -0.57,-1.04 -0.27,-0.23 -0.6,-0.35 -0.99,-0.35 -0.59,0 -1.06,0.21 -1.43,0.63 -0.37,0.42 -0.55,1.08 -0.55,1.99 0,0.92 0.18,1.59 0.53,2 0.35,0.42 0.81,0.63 1.38,0.63 0.46,0 0.84,-0.14 1.14,-0.42 0.31,-0.28 0.5,-0.71 0.58,-1.29z"/>
   <path id="25" class="fil0" d="M171.01 84.65c-0.43,0.37 -0.85,0.63 -1.25,0.78 -0.4,0.15 -0.83,0.23 -1.28,0.23 -0.75,0 -1.33,-0.18 -1.74,-0.55 -0.4,-0.37 -0.61,-0.83 -0.61,-1.4 0,-0.33 0.08,-0.64 0.23,-0.92 0.15,-0.28 0.35,-0.5 0.6,-0.66 0.25,-0.17 0.53,-0.29 0.84,-0.38 0.23,-0.06 0.57,-0.12 1.03,-0.17 0.94,-0.11 1.63,-0.24 2.07,-0.4 0,-0.16 0.01,-0.26 0.01,-0.3 0,-0.47 -0.11,-0.8 -0.33,-1 -0.3,-0.26 -0.74,-0.39 -1.33,-0.39 -0.55,0 -0.95,0.1 -1.21,0.29 -0.26,0.19 -0.45,0.53 -0.58,1.02l-1.14 -0.16c0.1,-0.49 0.27,-0.88 0.51,-1.18 0.24,-0.3 0.58,-0.53 1.03,-0.69 0.45,-0.16 0.97,-0.24 1.56,-0.24 0.59,0 1.06,0.07 1.43,0.21 0.37,0.14 0.64,0.31 0.81,0.52 0.17,0.21 0.29,0.47 0.36,0.79 0.04,0.2 0.06,0.55 0.06,1.07l0 1.54c0,1.08 0.02,1.76 0.07,2.05 0.05,0.29 0.14,0.56 0.28,0.83l-1.22 0c-0.12,-0.24 -0.19,-0.53 -0.22,-0.86zm-0.09 -2.58c-0.42,0.17 -1.06,0.32 -1.9,0.44 -0.48,0.07 -0.82,0.15 -1.02,0.23 -0.2,0.09 -0.35,0.21 -0.46,0.37 -0.11,0.17 -0.16,0.35 -0.16,0.55 0,0.31 0.12,0.56 0.35,0.77 0.24,0.2 0.58,0.31 1.03,0.31 0.45,0 0.85,-0.1 1.2,-0.29 0.35,-0.19 0.61,-0.46 0.77,-0.8 0.13,-0.26 0.19,-0.65 0.19,-1.16l0.01 -0.42z"/>
   <g>
    <path class="fil0" d="M146.54 36.43l17.13 4.9c-1.62,4.55 -3.85,8.36 -6.7,11.4 -2.84,3.06 -6.21,5.36 -10.14,6.91 -3.92,1.55 -8.79,2.33 -14.61,2.33 -7.08,0 -12.75,-0.95 -17.06,-2.83 -4.29,-1.9 -7.83,-5.23 -10.62,-9.99 -2.79,-4.76 -3.83,-10.87 -3.11,-18.3 0.96,-9.91 4.56,-17.53 10.79,-22.86 6.25,-5.32 14.6,-7.98 25.07,-7.98 8.18,0 14.48,1.52 18.87,4.58 4.38,3.06 7.42,7.75 9.07,14.08l-18.05 3.62c-0.44,-1.81 -0.97,-3.14 -1.57,-3.98 -1,-1.41 -2.27,-2.5 -3.81,-3.25 -1.56,-0.77 -3.34,-1.14 -5.35,-1.14 -4.57,0 -8.23,1.69 -10.97,5.05 -2.07,2.5 -3.38,6.43 -3.89,11.78 -0.64,6.64 0.01,11.18 1.96,13.65 1.96,2.46 4.91,3.68 8.87,3.68 3.84,0 6.84,-0.99 9,-2.99 2.16,-1.98 3.86,-4.87 5.12,-8.65z"/>
    <polygon class="fil0" points="96.14,42.16 94.32,60.97 74.17,60.97 76,42.16 "/>
    <polygon class="fil0" points="79.98,1 100.13,1 96.55,37.93 76.41,37.93 "/>
    <polygon class="fil0" points="13.02,1 31.77,1 52.93,34.11 56.13,1 75.1,1 69.3,60.97 50.33,60.97 29.28,28.04 26.1,60.97 7.22,60.97 "/>
   </g>
  </g>
 </g>
</svg>
