<?xml version="1.0" encoding="UTF-8"?>
<!DOCTYPE svg PUBLIC "-//W3C//DTD SVG 1.1//EN" "http://www.w3.org/Graphics/SVG/1.1/DTD/svg11.dtd">
<!-- Creator: CorelDRAW 2020 (64 Bit) -->
<svg xmlns="http://www.w3.org/2000/svg" xml:space="preserve" width="8.06443in" height="2.19376in" version="1.1" style="shape-rendering:geometricPrecision; text-rendering:geometricPrecision; image-rendering:optimizeQuality; fill-rule:evenodd; clip-rule:evenodd"
viewBox="0 0 3231.95 879.18"
 xmlns:xlink="http://www.w3.org/1999/xlink"
 xmlns:xodm="http://www.corel.com/coreldraw/odm/2003">
 <defs>
  <style type="text/css">
   <![CDATA[
    .fil0 {fill:white}
    .fil1 {fill:white;fill-rule:nonzero}
   ]]>
  </style>
 </defs>
 <g id="Camada_x0020_1">
  <metadata id="CorelCorpID_0Corel-Layer"/>
  <g id="_2094069800656">
   <path class="fil0" d="M3231.95 458.2c0,8.16 -0.53,16.2 -1.54,24.11l-119.05 0 -35.11 0 -164.62 0c12.48,45.35 53.64,74.76 98.73,83.08 45.08,8.32 109.2,-10.81 125.81,-36.92l66.22 64.75c-40.44,44.75 -88.77,73.22 -192.03,73.22 -103.26,0 -225.41,-95.75 -219.32,-208.25l0 -25.6c0,-112.5 98.7,-203.7 220.46,-203.7 121.76,0 220.46,91.2 220.46,203.7l0 25.6zm-320.97 -47.22l201.03 0c-11.68,-46.62 -52.25,-81.01 -100.51,-81.01 -48.26,0 -88.83,34.39 -100.51,81.01z"/>
   <path class="fil0" d="M2273.4 458.2c0,112.5 -103.18,203.7 -230.46,203.7 -127.28,0 -230.46,-91.2 -230.46,-203.7l0 -25.6c0,-112.5 103.18,-203.7 230.46,-203.7 127.28,0 230.46,91.2 230.46,203.7l0 25.6zm-121.84 -5.97c0,59.99 -48.63,108.62 -108.62,108.62 -59.99,0 -108.62,-48.63 -108.62,-108.62l0 -13.65c0,-59.99 48.63,-108.62 108.62,-108.62 59.99,0 108.62,48.63 108.62,108.62l0 13.65z"/>
   <path class="fil0" d="M1790.34 235.22c-1.71,-0.52 -4.27,-0.08 -7.28,0l-38.86 0 -63.24 -0.02c-0.31,0 -0.6,0.01 -0.88,0.02l-1.88 0c-1.25,0 -2.27,1.02 -2.27,2.28l0 1.37c-0,0.2 -0,0.41 0,0.62l0 240.92c-1.93,-1.91 -3.39,-4.27 -5.17,-6.2 -1.49,-1.61 -3.46,-3.29 -5.04,-4.88l-13.81 -14.73c-1.65,-1.69 -3.21,-3.77 -4.75,-5.2 -1.6,-1.48 -1.27,-0.58 -2.83,-2.09l-20.39 -21.2c-0.09,-0.09 -0.22,-0.23 -0.31,-0.33l-4.89 -5.55c-2.26,-3.56 -6.51,-6.6 -9.47,-9.83 -1.46,-1.59 -2.97,-3.2 -4.5,-4.82l-42.21 -44.65c-1.61,-1.72 -2.93,-3.21 -4.43,-4.89 -3.58,-4.02 -8.48,-7.84 -11.93,-12.22 -0.69,-0.88 -1.44,-2.05 -2.13,-2.9 -4.09,-5.03 -9.8,-9.21 -13.97,-13.9 -1.84,-2.06 -3.02,-3 -4.81,-5.11l-4.5 -4.85c-5.26,-4.77 -9.09,-10.31 -14.08,-15.06 -1.85,-1.76 -2.93,-2.99 -4.65,-4.66l-9.17 -10.06c-1.84,-1.88 -3.21,-3.03 -5.08,-4.84 -2.17,-2.1 -2.98,-4.12 -4.99,-6.15l-2.52 -2.42c-0.1,-0.09 -0.24,-0.2 -0.34,-0.29l-4.2 -4.45c-0.1,-0.08 -0.27,-0.17 -0.37,-0.25l-1.35 -1.2c-0.89,-0.92 -1.56,-1.86 -2.33,-2.63l-23.41 -23.69c-2.67,-3.89 -4.16,-5.34 -9.83,-5.32 -21.72,0.09 -110.74,-1.15 -123.61,0.7 -0.83,35.87 -0.04,72.74 -0.04,108.72 0,35.98 0,71.97 0,107.95 0,6.11 0.52,11.92 0.36,17.64 0,0.24 0.01,0.48 0.01,0.73 0,3.1 -0.18,6.16 -0.52,9.18l0 0c-0.75,6.57 -2.3,12.94 -4.57,19.03l-0.01 0.02c-0.24,0.66 -0.5,1.31 -0.76,1.96l-0.05 0.13c-0.26,0.63 -0.52,1.27 -0.79,1.9l-0.02 0.04c-0.27,0.64 -0.56,1.27 -0.85,1.9l-0.08 0.17c-0.28,0.6 -0.56,1.19 -0.86,1.78l-0.06 0.12c-0.3,0.6 -0.6,1.2 -0.92,1.8l-0.13 0.24c-0.28,0.53 -0.56,1.06 -0.86,1.58l-0.18 0.32c-0.31,0.55 -0.63,1.1 -0.95,1.65l-0.14 0.24c-0.3,0.51 -0.61,1.01 -0.92,1.51l-0.21 0.34c-0.33,0.53 -0.68,1.07 -1.02,1.6l-0.2 0.3c-0.32,0.48 -0.64,0.96 -0.97,1.43l-0.22 0.31c-0.37,0.53 -0.75,1.06 -1.13,1.58l-0.14 0.2c-0.36,0.49 -0.72,0.98 -1.09,1.46l-0.24 0.31c-11.31,14.65 -27.34,26.35 -46.23,33.51l-0 0 -0.05 0.02 -0.05 0.02 -0.05 0.02 -0.05 0.02 -0.05 0.02 -0.05 0.02 -0.05 0.02 -0.05 0.02 -0.05 0.02 -0.05 0.02 -0.05 0.02 -0.05 0.02 -0.05 0.02 -0.05 0.02 -0.05 0.02 -0.05 0.02 -0.05 0.02 -0.05 0.02 -0.05 0.02 -1.13 0.41 -0.05 0.02 -0.05 0.02 -0.05 0.02 -0.05 0.02 -0.05 0.02 -0.05 0.02 -0.41 0.15 -0.05 0.02 -0.05 0.02 -0.05 0.02 -0.05 0.02 -0.05 0.02 -0.05 0.02 -0.05 0.02 -0.05 0.02 -0.05 0.02 0 0c-12.35,4.26 -25.83,6.61 -39.95,6.61 -5.81,0 -11.51,-0.4 -17.07,-1.17l-0.09 -0.01 -0.09 -0.01 -0.09 -0.01 -1.19 -0.17 -0.09 -0.01 -0.09 -0.01 -0.08 -0.01 -0.09 -0.01 -0.09 -0.01 -0.09 -0.01 -0.09 -0.01 -0.34 -0.05 -0.08 -0.01 -0.09 -0.01 -0.08 -0.01c-0.4,-0.06 -0.79,-0.12 -1.18,-0.19l-0.08 -0.02 -0.09 -0.01 -0.08 -0.01 -0.08 -0.01 -0.09 -0.02 -0.08 -0.01 -0.09 -0.01 -0.08 -0.02 -0.09 -0.01 -0.08 -0.01 -0.08 -0.02 -0.09 -0.01 -0.08 -0.02 -0.08 -0.02 -0.09 -0.01 -0.33 -0.06 -0.03 -0c-25.53,-4.69 -47.69,-17.17 -62.96,-34.44l-0.01 -0.02 -0.49 -0.56 -0.28 -0.32c-0.31,-0.36 -0.62,-0.72 -0.93,-1.09l-0.54 -0.65c-0.27,-0.33 -0.54,-0.66 -0.8,-0.99l-0.76 -0.96 -0.54 -0.71c-0.26,-0.34 -0.51,-0.68 -0.77,-1.03l-0.57 -0.77 -0.68 -0.95 -0.59 -0.85 -0.72 -1.07 -0.42 -0.64c-0.25,-0.38 -0.49,-0.76 -0.73,-1.14l-0.44 -0.7c-0.26,-0.41 -0.51,-0.83 -0.76,-1.25l-0.37 -0.62c-0.26,-0.44 -0.51,-0.88 -0.76,-1.32l-0.33 -0.6c-0.23,-0.41 -0.46,-0.83 -0.68,-1.25l-0.28 -0.54c-0.27,-0.51 -0.52,-1.02 -0.78,-1.53l-0.13 -0.26c-0.28,-0.58 -0.56,-1.16 -0.83,-1.74l-0.17 -0.38c-0.25,-0.54 -0.49,-1.08 -0.73,-1.62l-0.1 -0.24c-0.25,-0.57 -0.49,-1.15 -0.72,-1.73l-0.1 -0.24c-0.25,-0.63 -0.5,-1.27 -0.74,-1.91l-0.01 -0.02 -0 -0c-0.25,-0.66 -0.48,-1.33 -0.71,-2l-0.04 -0.11c-0.22,-0.63 -0.42,-1.27 -0.62,-1.91l-0.05 -0.15c-1.5,-4.81 -2.56,-9.79 -3.15,-14.88l0 0c-0.35,-3.02 -0.52,-6.08 -0.52,-9.18 0,-1.46 0.04,-2.9 0.12,-4.35 -0.27,-3.78 -0.34,-6.9 -0.34,-14.64 0,-36.19 0,-72.38 0,-108.57 0,-12.91 0.78,-97.32 -0.15,-107.77 -1.49,-0.69 -1.44,-1.14 -3.53,-1.14l-110.44 0c-2.85,0 -3.7,0.67 -5.28,1.85 -0.77,54.29 -0.02,109.17 -0.02,163.53 0,26.65 -0.4,54.36 0.57,80.28l-0.58 0c0,91.76 83.8,167.67 192.84,180.35l0.01 0c0.8,0.09 1.6,0.18 2.4,0.27 0.76,0.08 1.52,0.16 2.29,0.24 1.25,0.12 2.51,0.24 3.77,0.35l1.58 0.13c1.47,0.12 2.94,0.22 4.42,0.32l0.97 0.06c1.67,0.1 3.34,0.19 5.01,0.26l0.55 0.02c1.79,0.07 3.58,0.13 5.38,0.17l0.24 0c1.89,0.04 3.79,0.06 5.69,0.06 1.72,0 3.43,-0.02 5.13,-0.05l1.48 -0.03c1.39,-0.03 2.77,-0.08 4.15,-0.13l1.11 -0.04c1.67,-0.07 3.33,-0.16 4.99,-0.26l1.29 -0.08c1.34,-0.09 2.67,-0.18 4.01,-0.29l1.33 -0.11c1.65,-0.14 3.29,-0.29 4.92,-0.45l1.05 -0.11c1.34,-0.14 2.67,-0.29 4.01,-0.45l1.49 -0.18c1.63,-0.21 3.26,-0.42 4.88,-0.65l0.02 -0c1.61,-0.23 3.22,-0.48 4.82,-0.75l1.54 -0.26c1.25,-0.21 2.49,-0.43 3.73,-0.66l1.21 -0.22c1.53,-0.29 3.05,-0.59 4.57,-0.9l1.55 -0.33c1.1,-0.24 2.2,-0.48 3.3,-0.72l1.64 -0.37c1.46,-0.34 2.93,-0.69 4.38,-1.05 0.46,-0.11 0.91,-0.23 1.37,-0.35 1.13,-0.29 2.26,-0.59 3.38,-0.89l1.6 -0.44c1.21,-0.34 2.43,-0.68 3.63,-1.04l1.75 -0.52c1.15,-0.35 2.3,-0.7 3.44,-1.06l1.75 -0.56c0.95,-0.31 1.9,-0.62 2.85,-0.94 0.57,-0.19 1.14,-0.38 1.7,-0.57 1.32,-0.45 2.63,-0.92 3.93,-1.39l1.84 -0.68c0.84,-0.31 1.68,-0.63 2.52,-0.95 0.64,-0.24 1.28,-0.49 1.92,-0.74 1.26,-0.5 2.52,-1 3.77,-1.51 0.65,-0.27 1.28,-0.54 1.93,-0.81l2.11 -0.9c0.74,-0.32 1.47,-0.64 2.21,-0.97 0.68,-0.3 1.36,-0.61 2.04,-0.92 1.18,-0.54 2.36,-1.09 3.53,-1.65 0.62,-0.29 1.24,-0.59 1.85,-0.89 0.77,-0.37 1.53,-0.75 2.28,-1.12l1.56 -0.79c1.62,-0.83 3.23,-1.67 4.83,-2.52l0.59 -0.32c0.82,-0.44 1.63,-0.89 2.43,-1.34l1.37 -0.77c0.79,-0.44 1.58,-0.89 2.36,-1.35l0.38 -0.23c1.73,-1.01 3.45,-2.04 5.15,-3.1l0.89 -0.56c0.85,-0.53 1.7,-1.07 2.54,-1.61l0.55 -0.36c1.77,-1.15 3.51,-2.31 5.24,-3.5l0.21 -0.15c0.9,-0.62 1.78,-1.24 2.67,-1.87l0.4 -0.29c2.73,-1.95 5.39,-3.96 8,-6.02l0.1 -0.08c41.87,-33.09 67.87,-79.27 67.87,-130.38l-0.27 0c0.11,-1.48 0.19,-2.99 0.21,-4.57 0.06,-5.38 0.06,-10.77 0.06,-16.15 -0,-16.77 -0.78,-86.41 0.14,-97.15 2.94,0.23 6.93,5.8 9.25,8.22 2.92,3.05 5.51,5.98 8.18,9.18 1.46,1.76 2.8,3.1 4.32,5.01 3.95,4.96 8.44,8.78 12.45,13.6 1.68,2.02 2.54,2.95 4.4,4.9l8.27 9.08c4.94,6.51 11.24,12.05 16.65,18.1l12.68 14c1.43,1.6 2.29,3.32 3.76,4.95 1.47,1.64 2.71,2.68 4.17,4.5l7.95 9.49c2.71,4 5.45,5.07 8.5,8.79l30.63 35.24c1.42,2.04 0.42,0.46 1.95,2.35l9.95 10.51c0.32,0.42 0.65,0.95 0.76,1.1 1.11,1.43 -0.13,0.04 1.16,1.25 0.09,0.09 0.24,0.2 0.33,0.28l6.8 7.49c0.13,0.13 0.52,0.46 0.65,0.59l24.57 26.92c0.8,0.83 0.44,0.52 1.22,1.27l29.9 33.39c4.37,4.53 7.68,9.59 11.98,14.08 0.85,0.89 1.39,1.33 2.19,2.13 2.23,2.23 5.25,7.02 7.31,8.81l31.71 34.1c2.04,2.22 1.94,2.53 6.04,2.53l89.98 0c4.22,0 3.67,-0.82 3.65,-4.69l0 -0.19 0 -410.72 0 -1.87c0,-1.25 -1.02,-2.28 -2.28,-2.28l-0.01 0zm-678.4 278.16c-0.26,-0.44 -0.51,-0.88 -0.76,-1.32l0.76 1.32z"/>
   <path class="fil0" d="M2689.19 338.64c3.02,-1.59 77.21,-0.5 92.35,-0.49 5.57,0 9.68,1.77 10.07,-3.17l-0.35 -103.75c-7.89,-0.86 -80.81,-0.33 -96.59,-0.16 -1.58,0.02 -4.43,0.43 -5.56,-0.68l-0.67 -44.84c0.31,-18.86 0.56,-37.16 -0.6,-40.13 -2.99,-1.31 -119.07,-1.02 -120.82,-0.01 -1.59,3.54 -0.95,26.16 -0.51,47.61l-0.41 37.85c0,0 -27.31,-3.06 -62.09,3.41 -5.06,0.6 -9.35,1.38 -11.8,2.38 -0.23,0.09 -0.44,0.19 -0.63,0.29 -2.21,0.54 -4.43,1.12 -6.67,1.75 -1.23,0.04 -2.25,0.14 -3.52,0.84l-2.49 0.93c-11.32,3.52 -21.25,8.26 -29.79,13.41 -0.16,0.07 -0.33,0.13 -0.5,0.2 -1.67,0.62 -3.47,1.99 -5.22,3.44 -20.21,13.54 -31.25,28.45 -33.05,30.99l0 -52.66 -3.61 0c-9.56,-1.21 -47.52,-0.18 -55.13,-0.18 -18.32,0 -39.58,-0.99 -57.54,0.18 -1.21,7.14 -0.33,296.9 -0.33,314.38 0,12.98 -0.79,93.55 0.15,104.22 13.36,1.1 90.56,0.25 110.46,0.26 10.15,0 11.04,2.34 10.99,-7.69l0.03 -192.96c0,-1.62 -0.07,-3.26 0.29,-4.77 1.36,-5.72 0.75,-14.77 1.83,-21.03 0.03,-0.19 0.39,-1.81 0.46,-2.05l0.34 -0.93c0.83,-2.37 0.95,-5.03 1.32,-7.64 0.39,-1.62 0.82,-3.24 1.28,-4.87 0.39,-0.89 0.89,-1.89 1.15,-2.95 0.21,-0.88 0.31,-1.55 0.44,-2.23 1.53,-4.64 3.37,-9.25 5.56,-13.71l3.13 -5.84 0.45 -0.75c1.25,-1.63 2.03,-3.24 3.82,-5.8l0.08 -0.12 0 -0c0.95,-1.31 1.91,-2.57 2.88,-3.79 0.57,-0.7 1.21,-1.45 1.91,-2.27l0.91 -1.02c0.09,-0.1 0.23,-0.22 0.32,-0.32l10.3 -10.23c0.47,-0.37 0.5,-0.35 1,-0.8 0.44,-0.4 0.68,-0.65 0.83,-0.83 0.7,-0.56 1.39,-1.1 2.1,-1.63l3.97 -2.48c1.21,-0.76 0.57,-0.29 1.47,-0.96 0.1,-0.07 0.24,-0.2 0.33,-0.27l1.04 -0.83c0.81,-0.57 0.51,-0.33 1.15,-0.74l10.2 -5.38c2.18,-0.96 4.35,-1.81 6.5,-2.57 2.61,-0.57 2.71,-0.72 3.07,-1.03 6.61,-2.1 12.97,-3.4 18.82,-4.3 0.76,-0.04 1.61,-0.09 2.57,-0.12 3.45,-0.14 4.81,-0.83 7.44,-1.17l0.62 -0.07c5.9,-0.57 14.83,-0.85 23.94,-0.93 10.44,0.24 20.47,1.21 29.66,2.25 0.77,3.88 0.23,15.36 0.23,17.28 0,55.15 -0.78,113.67 0.13,168.13 0.03,1.66 0.05,2.98 0.07,4.06l0 0c0.12,5.82 0.28,4.63 1.89,12.64 0.51,2.56 0.6,5.33 1.19,8.03l1.82 7.52c0.53,3.77 1.35,3.68 2.11,7.18 0.93,4.28 3.72,12.12 6.73,18.87 4.95,15.6 18.29,32.54 37.54,46.32 0.57,0.5 1.26,1.09 1.56,1.31 0.81,0.57 1.26,0.78 1.74,0.98 6.34,4.27 13.27,8.2 20.71,11.63 0.21,0.2 0.39,0.35 1.47,0.67 14.83,6.65 31.62,11.33 49.75,12.93 0.67,0.13 1.45,0.24 2.41,0.29 2.85,0.15 5.77,0.24 8.73,0.3l0 0c0.98,0.02 1.97,0.03 2.96,0.04l0.01 0 1.79 0.01 0.6 0c2.68,0.01 5.28,0 7.81,-0.03l0.6 -0c5.21,-0.05 10.39,-0.13 15.37,-0.15 24.42,-0.1 13.91,-1 25.76,-2.37 3.36,-0.39 5.6,0.03 8.4,-1.09 3.68,-1.47 3.8,-0.74 7.79,-1.55l5.39 -1.75c8.23,-2.11 11.92,-3.88 11.92,-3.88l31.96 -14.34 -25.9 -60.3c-0.06,-0.22 -0.14,-0.46 -0.22,-0.72 -0.33,-1 -0.62,-1.49 -0.91,-1.91l-1.47 -3.42 -3.45 -9.95c-2.65,-4.98 0.07,-5.46 -4.67,-8.96 -2.28,0.58 -0.33,0.04 -1.99,1.08l-5.12 2.97c-2.77,1.46 -4.46,1.91 -7.45,3.17 -2.16,0.91 -1.89,1.45 -3.3,2.13 -3.72,1.81 -8.3,2.11 -12.52,3.09 -2.56,0.59 -1.88,0.86 -3.71,1.54 -7.9,1.09 -17.08,1.15 -27.43,-0.7l-0 0c-0.4,-0.18 -1,-0.36 -2.01,-0.56 -1.05,-0.21 -1.96,-0.37 -2.81,-0.52 -3.94,-1.08 -7.42,-2.53 -10.48,-4.26 -3.46,-2.27 -7.67,-5.65 -10.3,-8.27 -0.62,-0.69 -1.2,-1.39 -1.76,-2.1l-7.75 -14.66c-0.22,-0.67 -0.43,-1.32 -0.62,-1.97 -0.15,-0.97 -0.22,-1.9 -0.42,-3.15 -0.74,-4.69 -1.59,-8.52 -2.03,-12.86l0 -0c-0.18,-1.83 -0.3,-3.76 -0.3,-5.89 -0.01,-18.37 -1.28,-166 0.83,-169.99z"/>
   <path class="fil1" d="M1043.95 791.37l11.16 2.89c-2.33,9.37 -6.52,16.49 -12.57,21.4 -6.05,4.91 -13.45,7.38 -22.21,7.38 -9.05,0 -16.41,-1.89 -22.09,-5.68 -5.68,-3.77 -9.99,-9.25 -12.94,-16.41 -2.96,-7.18 -4.44,-14.86 -4.44,-23.09 0,-8.97 1.66,-16.79 5.01,-23.47 3.35,-6.68 8.11,-11.75 14.28,-15.22 6.17,-3.47 12.96,-5.19 20.37,-5.19 8.42,0 15.49,2.19 21.21,6.58 5.74,4.39 9.73,10.55 11.99,18.5l-10.93 2.65c-1.94,-6.26 -4.78,-10.83 -8.48,-13.68 -3.7,-2.87 -8.36,-4.29 -13.98,-4.29 -6.44,0 -11.85,1.58 -16.18,4.75 -4.33,3.17 -7.38,7.44 -9.13,12.78 -1.76,5.36 -2.64,10.87 -2.64,16.55 0,7.32 1.04,13.72 3.11,19.18 2.07,5.48 5.31,9.55 9.69,12.26 4.39,2.71 9.13,4.05 14.24,4.05 6.23,0 11.48,-1.85 15.78,-5.52 4.31,-3.69 7.23,-9.15 8.76,-16.41z"/>
   <path id="1" class="fil1" d="M1109.18 801.38l10.69 1.45c-1.66,6.36 -4.78,11.31 -9.32,14.82 -4.54,3.51 -10.34,5.27 -17.41,5.27 -8.89,0 -15.94,-2.81 -21.15,-8.42 -5.21,-5.6 -7.81,-13.48 -7.81,-23.61 0,-10.47 2.62,-18.61 7.89,-24.39 5.27,-5.8 12.1,-8.68 20.5,-8.68 8.13,0 14.77,2.83 19.92,8.5 5.15,5.68 7.74,13.66 7.74,23.95 0,0.62 -0.02,1.57 -0.06,2.81l-45.42 0c0.39,6.84 2.27,12.1 5.68,15.73 3.39,3.63 7.64,5.46 12.71,5.46 3.78,0 7.01,-1.02 9.68,-3.07 2.68,-2.05 4.8,-5.32 6.36,-9.81zm-33.84 -16.97l33.96 0c-0.45,-5.26 -1.76,-9.19 -3.9,-11.81 -3.27,-4.07 -7.54,-6.12 -12.77,-6.12 -4.74,0 -8.71,1.62 -11.95,4.87 -3.21,3.25 -4.99,7.6 -5.35,13.06z"/>
   <path id="2" class="fil1" d="M1132.94 821.6l0 -62.46 9.28 0 0 8.87c4.47,-6.8 10.93,-10.19 19.37,-10.19 3.68,0 7.05,0.68 10.12,2.03 3.08,1.34 5.39,3.13 6.91,5.32 1.53,2.19 2.6,4.79 3.21,7.8 0.37,1.97 0.57,5.4 0.57,10.29l0 38.35 -10.34 0 0 -37.95c0,-4.31 -0.39,-7.54 -1.2,-9.67 -0.8,-2.13 -2.23,-3.83 -4.27,-5.11 -2.04,-1.26 -4.45,-1.91 -7.19,-1.91 -4.38,0 -8.17,1.42 -11.36,4.29 -3.19,2.85 -4.78,8.29 -4.78,16.27l0 34.08 -10.34 0z"/>
   <path id="3" class="fil1" d="M1220.73 812.15l1.41 9.35c-2.9,0.62 -5.5,0.94 -7.77,0.94 -3.74,0 -6.64,-0.6 -8.72,-1.83 -2.06,-1.22 -3.51,-2.81 -4.35,-4.79 -0.84,-1.99 -1.25,-6.16 -1.25,-12.52l0 -35.99 -7.64 0 0 -8.18 7.64 0 0 -15.45 10.34 -6.36 0 21.8 10.34 0 0 8.18 -10.34 0 0 36.59c0,3.03 0.18,4.97 0.55,5.84 0.35,0.86 0.94,1.54 1.76,2.07 0.82,0.5 2,0.76 3.52,0.76 1.14,0 2.64,-0.14 4.5,-0.42z"/>
   <path id="4" class="fil1" d="M1230.82 821.6l0 -62.46 9.28 0 0 9.57c2.37,-4.43 4.56,-7.36 6.58,-8.77 2.02,-1.42 4.23,-2.13 6.64,-2.13 3.49,0 7.03,1.12 10.63,3.35l-3.68 9.77c-2.51,-1.44 -5.01,-2.17 -7.52,-2.17 -2.25,0 -4.27,0.7 -6.05,2.09 -1.78,1.38 -3.05,3.31 -3.82,5.78 -1.15,3.75 -1.72,7.86 -1.72,12.34l0 32.64 -10.34 0z"/>
   <path id="5" class="fil1" d="M1266.19 790.37c0,-11.53 3.13,-20.08 9.42,-25.63 5.23,-4.61 11.63,-6.92 19.17,-6.92 8.36,0 15.22,2.81 20.54,8.42 5.31,5.6 7.97,13.36 7.97,23.25 0,8.02 -1.17,14.32 -3.52,18.92 -2.35,4.59 -5.78,8.16 -10.28,10.71 -4.49,2.55 -9.4,3.81 -14.71,3.81 -8.54,0 -15.43,-2.79 -20.7,-8.38 -5.27,-5.6 -7.89,-13.66 -7.89,-24.17zm10.57 0.02c0,7.98 1.7,13.96 5.11,17.91 3.43,3.97 7.72,5.96 12.9,5.96 5.13,0 9.4,-1.99 12.83,-5.98 3.41,-3.99 5.11,-10.07 5.11,-18.23 0,-7.7 -1.72,-13.54 -5.15,-17.49 -3.43,-3.97 -7.7,-5.96 -12.79,-5.96 -5.19,0 -9.48,1.97 -12.9,5.92 -3.41,3.95 -5.11,9.91 -5.11,17.87z"/>
   <path id="6" class="fil1" d="M1424.46 735.43l11.16 0 0 49.77c0,8.67 -0.96,15.54 -2.86,20.64 -1.92,5.07 -5.37,9.23 -10.34,12.42 -5,3.19 -11.52,4.79 -19.62,4.79 -7.85,0 -14.3,-1.38 -19.29,-4.17 -5.01,-2.79 -8.58,-6.8 -10.71,-12.08 -2.13,-5.28 -3.21,-12.48 -3.21,-21.6l0 -49.77 11.16 0 0 49.75c0,7.48 0.69,13.02 2.04,16.55 1.35,3.55 3.66,6.3 6.97,8.2 3.29,1.92 7.32,2.89 12.08,2.89 8.15,0 13.96,-1.91 17.43,-5.7 3.47,-3.81 5.19,-11.11 5.19,-21.94l0 -49.75z"/>
   <path id="7" class="fil1" d="M1452.92 821.6l0 -62.46 9.28 0 0 8.87c4.47,-6.8 10.93,-10.19 19.37,-10.19 3.68,0 7.05,0.68 10.13,2.03 3.07,1.34 5.39,3.13 6.91,5.32 1.53,2.19 2.6,4.79 3.21,7.8 0.37,1.97 0.57,5.4 0.57,10.29l0 38.35 -10.34 0 0 -37.95c0,-4.31 -0.39,-7.54 -1.19,-9.67 -0.8,-2.13 -2.23,-3.83 -4.27,-5.11 -2.04,-1.26 -4.44,-1.91 -7.19,-1.91 -4.39,0 -8.17,1.42 -11.36,4.29 -3.19,2.85 -4.78,8.29 -4.78,16.27l0 34.08 -10.34 0z"/>
   <path id="8" class="fil1" d="M1518.27 747.46l0 -12.04 10.34 0 0 12.04 -10.34 0zm0 74.14l0 -62.46 10.34 0 0 62.46 -10.34 0z"/>
   <path id="9" class="fil1" d="M1561.04 821.6l-23.01 -62.46 11.07 0 13.04 37.41c1.41,4.03 2.72,8.23 3.92,12.58 0.92,-3.29 2.19,-7.24 3.86,-11.88l13.55 -38.11 10.62 0 -23.09 62.46 -9.95 0z"/>
   <path id="10" class="fil1" d="M1644.72 801.38l10.69 1.45c-1.67,6.36 -4.78,11.31 -9.32,14.82 -4.54,3.51 -10.34,5.27 -17.41,5.27 -8.89,0 -15.94,-2.81 -21.15,-8.42 -5.21,-5.6 -7.81,-13.48 -7.81,-23.61 0,-10.47 2.63,-18.61 7.89,-24.39 5.27,-5.8 12.1,-8.68 20.5,-8.68 8.13,0 14.77,2.83 19.92,8.5 5.15,5.68 7.74,13.66 7.74,23.95 0,0.62 -0.02,1.57 -0.06,2.81l-45.42 0c0.39,6.84 2.27,12.1 5.68,15.73 3.39,3.63 7.64,5.46 12.71,5.46 3.78,0 7.01,-1.02 9.67,-3.07 2.68,-2.05 4.8,-5.32 6.36,-9.81zm-33.84 -16.97l33.96 0c-0.45,-5.26 -1.76,-9.19 -3.9,-11.81 -3.27,-4.07 -7.54,-6.12 -12.77,-6.12 -4.74,0 -8.71,1.62 -11.95,4.87 -3.21,3.25 -4.99,7.6 -5.35,13.06z"/>
   <path id="11" class="fil1" d="M1668.36 821.6l0 -62.46 9.28 0 0 9.57c2.37,-4.43 4.56,-7.36 6.58,-8.77 2.02,-1.42 4.23,-2.13 6.64,-2.13 3.49,0 7.03,1.12 10.63,3.35l-3.68 9.77c-2.51,-1.44 -5.01,-2.17 -7.52,-2.17 -2.25,0 -4.27,0.7 -6.05,2.09 -1.78,1.38 -3.05,3.31 -3.82,5.78 -1.15,3.75 -1.72,7.86 -1.72,12.34l0 32.64 -10.34 0z"/>
   <path id="12" class="fil1" d="M1703.49 802.95l10.22 -1.69c0.57,4.19 2.17,7.4 4.8,9.65 2.63,2.23 6.31,3.35 11.01,3.35 4.76,0 8.29,-0.98 10.6,-2.97 2.29,-1.97 3.45,-4.29 3.45,-6.96 0,-2.39 -1.04,-4.27 -3.09,-5.64 -1.45,-0.94 -4.97,-2.13 -10.57,-3.59 -7.56,-1.95 -12.79,-3.63 -15.73,-5.06 -2.92,-1.44 -5.13,-3.41 -6.64,-5.94 -1.51,-2.51 -2.27,-5.3 -2.27,-8.34 0,-2.79 0.63,-5.36 1.86,-7.72 1.25,-2.37 2.94,-4.33 5.07,-5.9 1.61,-1.2 3.8,-2.23 6.56,-3.07 2.78,-0.84 5.74,-1.26 8.91,-1.26 4.78,0 8.97,0.7 12.57,2.13 3.62,1.4 6.29,3.33 8.01,5.74 1.7,2.43 2.9,5.66 3.55,9.71l-10.11 1.45c-0.45,-3.25 -1.78,-5.8 -3.98,-7.62 -2.19,-1.83 -5.29,-2.73 -9.3,-2.73 -4.72,0 -8.11,0.8 -10.12,2.41 -2.02,1.6 -3.04,3.49 -3.04,5.64 0,1.36 0.41,2.61 1.25,3.71 0.84,1.12 2.15,2.07 3.96,2.81 1.04,0.4 4.05,1.3 9.11,2.71 7.28,1.98 12.37,3.63 15.27,4.89 2.9,1.26 5.17,3.13 6.81,5.53 1.66,2.43 2.49,5.44 2.49,9.05 0,3.51 -1,6.82 -3.02,9.93 -2.02,3.11 -4.91,5.52 -8.7,7.22 -3.8,1.7 -8.09,2.55 -12.87,2.55 -7.91,0 -13.97,-1.69 -18.12,-5.03 -4.15,-3.37 -6.79,-8.35 -7.95,-14.94z"/>
   <path id="13" class="fil1" d="M1766.35 747.46l0 -12.04 10.34 0 0 12.04 -10.34 0zm0 74.14l0 -62.46 10.34 0 0 62.46 -10.34 0z"/>
   <path id="14" class="fil1" d="M1814.9 812.15l1.41 9.35c-2.9,0.62 -5.51,0.94 -7.78,0.94 -3.74,0 -6.64,-0.6 -8.72,-1.83 -2.05,-1.22 -3.5,-2.81 -4.35,-4.79 -0.84,-1.99 -1.25,-6.16 -1.25,-12.52l0 -35.99 -7.64 0 0 -8.18 7.64 0 0 -15.45 10.34 -6.36 0 21.8 10.34 0 0 8.18 -10.34 0 0 36.59c0,3.03 0.18,4.97 0.55,5.84 0.35,0.86 0.94,1.54 1.76,2.07 0.82,0.5 2,0.76 3.52,0.76 1.14,0 2.64,-0.14 4.5,-0.42z"/>
   <path id="15" class="fil1" d="M1864.94 813.78c-3.84,3.35 -7.54,5.7 -11.08,7.08 -3.55,1.38 -7.34,2.07 -11.42,2.07 -6.7,0 -11.85,-1.66 -15.45,-5.01 -3.6,-3.33 -5.41,-7.6 -5.41,-12.8 0,-3.05 0.68,-5.84 2.04,-8.36 1.37,-2.53 3.15,-4.53 5.35,-6.06 2.21,-1.52 4.68,-2.69 7.44,-3.47 2.04,-0.54 5.11,-1.06 9.2,-1.58 8.34,-1 14.51,-2.23 18.45,-3.63 0.04,-1.45 0.06,-2.37 0.06,-2.75 0,-4.29 -0.98,-7.32 -2.94,-9.09 -2.64,-2.39 -6.58,-3.57 -11.79,-3.57 -4.88,0 -8.48,0.88 -10.79,2.63 -2.33,1.75 -4.03,4.83 -5.15,9.29l-10.1 -1.44c0.92,-4.43 2.43,-8.02 4.54,-10.75 2.11,-2.73 5.17,-4.81 9.16,-6.3 3.98,-1.46 8.62,-2.21 13.87,-2.21 5.21,0 9.46,0.62 12.73,1.89 3.25,1.26 5.66,2.83 7.19,4.73 1.53,1.91 2.6,4.31 3.23,7.22 0.33,1.81 0.51,5.05 0.51,9.73l0 14.04c0,9.81 0.22,16.01 0.65,18.63 0.41,2.63 1.27,5.13 2.53,7.54l-10.81 0c-1.04,-2.23 -1.7,-4.83 -2,-7.82zm-0.82 -23.47c-3.76,1.56 -9.4,2.89 -16.92,3.97 -4.27,0.62 -7.29,1.32 -9.05,2.11 -1.76,0.78 -3.11,1.92 -4.07,3.41 -0.96,1.5 -1.45,3.17 -1.45,5.01 0,2.79 1.04,5.14 3.13,7 2.1,1.86 5.15,2.81 9.17,2.81 3.98,0 7.52,-0.88 10.63,-2.67 3.1,-1.77 5.39,-4.19 6.84,-7.26 1.12,-2.39 1.67,-5.9 1.67,-10.53l0.06 -3.85zm-21.74 -38.87l7.52 -16.49 13.63 0 -12.57 16.49 -8.58 0z"/>
   <path id="16" class="fil1" d="M1890.34 821.6l0 -62.46 9.28 0 0 9.57c2.37,-4.43 4.56,-7.36 6.58,-8.77 2.02,-1.42 4.23,-2.13 6.64,-2.13 3.49,0 7.03,1.12 10.63,3.35l-3.68 9.77c-2.51,-1.44 -5.01,-2.17 -7.52,-2.17 -2.25,0 -4.27,0.7 -6.05,2.09 -1.78,1.38 -3.05,3.31 -3.82,5.78 -1.15,3.75 -1.72,7.86 -1.72,12.34l0 32.64 -10.34 0z"/>
   <path id="17" class="fil1" d="M1929.58 747.46l0 -12.04 10.34 0 0 12.04 -10.34 0zm0 74.14l0 -62.46 10.34 0 0 62.46 -10.34 0z"/>
   <path id="18" class="fil1" d="M1951.81 790.37c0,-11.53 3.13,-20.08 9.42,-25.63 5.23,-4.61 11.63,-6.92 19.17,-6.92 8.36,0 15.22,2.81 20.54,8.42 5.31,5.6 7.97,13.36 7.97,23.25 0,8.02 -1.17,14.32 -3.52,18.92 -2.35,4.59 -5.78,8.16 -10.28,10.71 -4.49,2.55 -9.4,3.81 -14.71,3.81 -8.54,0 -15.43,-2.79 -20.7,-8.38 -5.27,-5.6 -7.89,-13.66 -7.89,-24.17zm10.57 0.02c0,7.98 1.7,13.96 5.11,17.91 3.43,3.97 7.72,5.96 12.91,5.96 5.13,0 9.4,-1.99 12.83,-5.98 3.41,-3.99 5.11,-10.07 5.11,-18.23 0,-7.7 -1.72,-13.54 -5.15,-17.49 -3.43,-3.97 -7.7,-5.96 -12.79,-5.96 -5.19,0 -9.48,1.97 -12.91,5.92 -3.41,3.95 -5.11,9.91 -5.11,17.87z"/>
   <path id="19" class="fil1" d="M2093.05 821.6l0 -7.92c-3.86,6.16 -9.54,9.25 -17.04,9.25 -4.86,0 -9.32,-1.36 -13.38,-4.11 -4.07,-2.73 -7.23,-6.56 -9.48,-11.45 -2.23,-4.91 -3.35,-10.55 -3.35,-16.93 0,-6.22 1.02,-11.85 3.04,-16.93 2.04,-5.05 5.07,-8.95 9.13,-11.63 4.03,-2.71 8.58,-4.05 13.57,-4.05 3.68,0 6.95,0.8 9.81,2.39 2.86,1.58 5.19,3.67 6.99,6.22l0 -30.99 10.34 0 0 86.17 -9.64 0zm-32.67 -31.15c0,7.98 1.65,13.94 4.96,17.89 3.29,3.95 7.19,5.92 11.67,5.92 4.52,0 8.36,-1.89 11.53,-5.66 3.15,-3.77 4.74,-9.53 4.74,-17.27 0,-8.5 -1.6,-14.76 -4.84,-18.76 -3.21,-3.99 -7.19,-5.98 -11.91,-5.98 -4.6,0 -8.44,1.91 -11.54,5.74 -3.07,3.83 -4.62,9.87 -4.62,18.11z"/>
   <path id="20" class="fil1" d="M2115.16 790.37c0,-11.53 3.13,-20.08 9.42,-25.63 5.23,-4.61 11.63,-6.92 19.17,-6.92 8.36,0 15.22,2.81 20.54,8.42 5.31,5.6 7.97,13.36 7.97,23.25 0,8.02 -1.17,14.32 -3.52,18.92 -2.35,4.59 -5.78,8.16 -10.28,10.71 -4.49,2.55 -9.4,3.81 -14.71,3.81 -8.54,0 -15.43,-2.79 -20.7,-8.38 -5.27,-5.6 -7.89,-13.66 -7.89,-24.17zm10.57 0.02c0,7.98 1.7,13.96 5.11,17.91 3.43,3.97 7.72,5.96 12.9,5.96 5.13,0 9.4,-1.99 12.83,-5.98 3.41,-3.99 5.11,-10.07 5.11,-18.23 0,-7.7 -1.72,-13.54 -5.15,-17.49 -3.43,-3.97 -7.7,-5.96 -12.79,-5.96 -5.19,0 -9.48,1.97 -12.9,5.92 -3.41,3.95 -5.11,9.91 -5.11,17.87z"/>
   <polygon id="21" class="fil1" points="2218.21,821.6 2218.21,735.43 2229.65,735.43 2273.79,803.07 2273.79,735.43 2284.48,735.43 2284.48,821.6 2273.04,821.6 2228.9,753.96 2228.9,821.6 "/>
   <path id="22" class="fil1" d="M2298.01 790.37c0,-11.53 3.13,-20.08 9.42,-25.63 5.23,-4.61 11.63,-6.92 19.17,-6.92 8.36,0 15.22,2.81 20.54,8.42 5.31,5.6 7.97,13.36 7.97,23.25 0,8.02 -1.17,14.32 -3.52,18.92 -2.35,4.59 -5.78,8.16 -10.28,10.71 -4.49,2.55 -9.4,3.81 -14.71,3.81 -8.54,0 -15.43,-2.79 -20.7,-8.38 -5.27,-5.6 -7.89,-13.66 -7.89,-24.17zm10.57 0.02c0,7.98 1.7,13.96 5.11,17.91 3.43,3.97 7.72,5.96 12.9,5.96 5.13,0 9.4,-1.99 12.83,-5.98 3.41,-3.99 5.11,-10.07 5.11,-18.23 0,-7.7 -1.72,-13.54 -5.15,-17.49 -3.43,-3.97 -7.7,-5.96 -12.79,-5.96 -5.19,0 -9.48,1.97 -12.9,5.92 -3.41,3.95 -5.11,9.91 -5.11,17.87z"/>
   <path id="23" class="fil1" d="M2367.12 821.6l0 -62.46 9.28 0 0 9.57c2.37,-4.43 4.56,-7.36 6.58,-8.77 2.02,-1.42 4.23,-2.13 6.64,-2.13 3.49,0 7.03,1.12 10.63,3.35l-3.68 9.77c-2.51,-1.44 -5.01,-2.17 -7.52,-2.17 -2.25,0 -4.27,0.7 -6.05,2.09 -1.78,1.38 -3.05,3.31 -3.82,5.78 -1.16,3.75 -1.72,7.86 -1.72,12.34l0 32.64 -10.34 0z"/>
   <path id="24" class="fil1" d="M2428.81 812.15l1.41 9.35c-2.9,0.62 -5.5,0.94 -7.77,0.94 -3.74,0 -6.64,-0.6 -8.72,-1.83 -2.06,-1.22 -3.51,-2.81 -4.35,-4.79 -0.84,-1.99 -1.25,-6.16 -1.25,-12.52l0 -35.99 -7.64 0 0 -8.18 7.64 0 0 -15.45 10.34 -6.36 0 21.8 10.34 0 0 8.18 -10.34 0 0 36.59c0,3.03 0.18,4.97 0.55,5.84 0.35,0.86 0.94,1.54 1.76,2.07 0.82,0.5 2,0.76 3.52,0.76 1.14,0 2.64,-0.14 4.5,-0.42z"/>
   <path id="25" class="fil1" d="M2480.61 801.38l10.69 1.45c-1.66,6.36 -4.78,11.31 -9.32,14.82 -4.54,3.51 -10.34,5.27 -17.41,5.27 -8.89,0 -15.94,-2.81 -21.15,-8.42 -5.21,-5.6 -7.81,-13.48 -7.81,-23.61 0,-10.47 2.63,-18.61 7.89,-24.39 5.27,-5.8 12.1,-8.68 20.5,-8.68 8.13,0 14.77,2.83 19.92,8.5 5.15,5.68 7.74,13.66 7.74,23.95 0,0.62 -0.02,1.57 -0.06,2.81l-45.41 0c0.39,6.84 2.27,12.1 5.68,15.73 3.39,3.63 7.64,5.46 12.71,5.46 3.78,0 7.01,-1.02 9.67,-3.07 2.68,-2.05 4.8,-5.32 6.36,-9.81zm-33.84 -16.97l33.96 0c-0.45,-5.26 -1.76,-9.19 -3.9,-11.81 -3.27,-4.07 -7.54,-6.12 -12.77,-6.12 -4.74,0 -8.71,1.62 -11.95,4.87 -3.21,3.25 -4.99,7.6 -5.34,13.06z"/>
   <path id="26" class="fil1" d="M2576.38 821.6l0 -7.92c-3.86,6.16 -9.54,9.25 -17.04,9.25 -4.86,0 -9.32,-1.36 -13.38,-4.11 -4.07,-2.73 -7.23,-6.56 -9.48,-11.45 -2.23,-4.91 -3.35,-10.55 -3.35,-16.93 0,-6.22 1.02,-11.85 3.04,-16.93 2.04,-5.05 5.07,-8.95 9.13,-11.63 4.03,-2.71 8.58,-4.05 13.57,-4.05 3.68,0 6.95,0.8 9.81,2.39 2.86,1.58 5.19,3.67 6.99,6.22l0 -30.99 10.34 0 0 86.17 -9.64 0zm-32.67 -31.15c0,7.98 1.65,13.94 4.96,17.89 3.29,3.95 7.19,5.92 11.67,5.92 4.52,0 8.36,-1.89 11.53,-5.66 3.15,-3.77 4.74,-9.53 4.74,-17.27 0,-8.5 -1.6,-14.76 -4.84,-18.76 -3.21,-3.99 -7.19,-5.98 -11.91,-5.98 -4.6,0 -8.44,1.91 -11.54,5.74 -3.07,3.83 -4.62,9.87 -4.62,18.11z"/>
   <path id="27" class="fil1" d="M2643.96 801.38l10.69 1.45c-1.66,6.36 -4.78,11.31 -9.32,14.82 -4.54,3.51 -10.34,5.27 -17.41,5.27 -8.89,0 -15.94,-2.81 -21.15,-8.42 -5.21,-5.6 -7.81,-13.48 -7.81,-23.61 0,-10.47 2.62,-18.61 7.89,-24.39 5.27,-5.8 12.1,-8.68 20.5,-8.68 8.13,0 14.77,2.83 19.92,8.5 5.15,5.68 7.74,13.66 7.74,23.95 0,0.62 -0.02,1.57 -0.06,2.81l-45.42 0c0.39,6.84 2.27,12.1 5.68,15.73 3.39,3.63 7.64,5.46 12.71,5.46 3.78,0 7.01,-1.02 9.68,-3.07 2.68,-2.05 4.8,-5.32 6.36,-9.81zm-33.84 -16.97l33.96 0c-0.45,-5.26 -1.76,-9.19 -3.9,-11.81 -3.27,-4.07 -7.54,-6.12 -12.77,-6.12 -4.74,0 -8.71,1.62 -11.95,4.87 -3.21,3.25 -4.99,7.6 -5.35,13.06z"/>
   <path id="28" class="fil1" d="M2698.01 793.92l10.46 -0.96c0.49,4.33 1.64,7.88 3.47,10.67 1.82,2.77 4.64,5.01 8.46,6.74 3.82,1.7 8.13,2.57 12.9,2.57 4.25,0 7.99,-0.64 11.24,-1.95 3.25,-1.3 5.66,-3.09 7.25,-5.36 1.59,-2.27 2.39,-4.73 2.39,-7.38 0,-2.69 -0.76,-5.03 -2.29,-7.06 -1.53,-2.01 -4.05,-3.69 -7.58,-5.07 -2.25,-0.88 -7.25,-2.29 -14.98,-4.19 -7.74,-1.91 -13.14,-3.69 -16.23,-5.38 -4.01,-2.17 -6.99,-4.85 -8.95,-8.04 -1.98,-3.19 -2.96,-6.78 -2.96,-10.73 0,-4.37 1.21,-8.44 3.62,-12.22 2.41,-3.79 5.92,-6.66 10.56,-8.63 4.62,-1.96 9.77,-2.95 15.43,-2.95 6.23,0 11.73,1.02 16.49,3.09 4.76,2.05 8.42,5.08 10.99,9.09 2.57,3.99 3.94,8.52 4.13,13.58l-10.69 0.84c-0.57,-5.44 -2.51,-9.55 -5.82,-12.32 -3.31,-2.79 -8.21,-4.17 -14.67,-4.17 -6.74,0 -11.65,1.26 -14.73,3.79 -3.08,2.53 -4.62,5.58 -4.62,9.15 0,3.09 1.1,5.64 3.27,7.64 2.15,1.98 7.73,4.05 16.78,6.14 9.05,2.11 15.26,3.93 18.62,5.5 4.88,2.31 8.5,5.21 10.83,8.77 2.33,3.53 3.49,7.6 3.49,12.22 0,4.59 -1.27,8.89 -3.84,12.94 -2.57,4.05 -6.23,7.2 -11.03,9.45 -4.8,2.25 -10.18,3.37 -16.2,3.37 -7.6,0 -13.96,-1.14 -19.09,-3.41 -5.15,-2.27 -9.17,-5.68 -12.08,-10.25 -2.94,-4.55 -4.47,-9.71 -4.62,-15.47z"/>
   <path id="29" class="fil1" d="M2818.57 813.78c-3.84,3.35 -7.54,5.7 -11.08,7.08 -3.55,1.38 -7.34,2.07 -11.42,2.07 -6.7,0 -11.85,-1.66 -15.45,-5.01 -3.6,-3.33 -5.41,-7.6 -5.41,-12.8 0,-3.05 0.68,-5.84 2.04,-8.36 1.37,-2.53 3.15,-4.53 5.35,-6.06 2.21,-1.52 4.68,-2.69 7.44,-3.47 2.04,-0.54 5.11,-1.06 9.2,-1.58 8.34,-1 14.51,-2.23 18.45,-3.63 0.04,-1.45 0.06,-2.37 0.06,-2.75 0,-4.29 -0.98,-7.32 -2.94,-9.09 -2.64,-2.39 -6.58,-3.57 -11.79,-3.57 -4.88,0 -8.48,0.88 -10.79,2.63 -2.33,1.75 -4.03,4.83 -5.15,9.29l-10.1 -1.44c0.92,-4.43 2.43,-8.02 4.54,-10.75 2.11,-2.73 5.17,-4.81 9.16,-6.3 3.98,-1.46 8.62,-2.21 13.87,-2.21 5.21,0 9.46,0.62 12.73,1.89 3.25,1.26 5.66,2.83 7.19,4.73 1.53,1.91 2.6,4.31 3.23,7.22 0.33,1.81 0.51,5.05 0.51,9.73l0 14.04c0,9.81 0.22,16.01 0.65,18.63 0.41,2.63 1.27,5.13 2.53,7.54l-10.81 0c-1.04,-2.23 -1.7,-4.83 -2,-7.82zm-0.82 -23.47c-3.76,1.56 -9.4,2.89 -16.92,3.97 -4.27,0.62 -7.29,1.32 -9.05,2.11 -1.76,0.78 -3.11,1.92 -4.07,3.41 -0.96,1.5 -1.45,3.17 -1.45,5.01 0,2.79 1.04,5.14 3.13,7 2.1,1.86 5.15,2.81 9.17,2.81 3.98,0 7.52,-0.88 10.63,-2.67 3.09,-1.77 5.39,-4.19 6.83,-7.26 1.12,-2.39 1.67,-5.9 1.67,-10.53l0.06 -3.85zm-33.61 -38.75c-0.04,-4.03 1.06,-7.24 3.27,-9.65 2.17,-2.39 4.97,-3.59 8.38,-3.59 2.37,0 5.6,1.02 9.68,3.09 2.25,1.14 4.05,1.73 5.39,1.73 1.23,0 2.17,-0.34 2.82,-1.02 0.65,-0.66 1.1,-2.03 1.37,-4.03l7.4 0c-0.12,4.45 -1.21,7.78 -3.29,10.01 -2.08,2.23 -4.7,3.35 -7.91,3.35 -2.39,0 -5.56,-1.1 -9.48,-3.29 -2.57,-1.42 -4.45,-2.13 -5.64,-2.13 -1.29,0 -2.35,0.46 -3.13,1.4 -0.84,0.92 -1.25,2.31 -1.21,4.13l-7.64 0z"/>
   <path id="30" class="fil1" d="M2840.21 790.37c0,-11.53 3.13,-20.08 9.42,-25.63 5.23,-4.61 11.63,-6.92 19.17,-6.92 8.36,0 15.22,2.81 20.54,8.42 5.31,5.6 7.97,13.36 7.97,23.25 0,8.02 -1.17,14.32 -3.52,18.92 -2.35,4.59 -5.78,8.16 -10.28,10.71 -4.49,2.55 -9.4,3.81 -14.71,3.81 -8.54,0 -15.43,-2.79 -20.7,-8.38 -5.27,-5.6 -7.89,-13.66 -7.89,-24.17zm10.57 0.02c0,7.98 1.7,13.96 5.11,17.91 3.43,3.97 7.72,5.96 12.91,5.96 5.13,0 9.4,-1.99 12.83,-5.98 3.41,-3.99 5.11,-10.07 5.11,-18.23 0,-7.7 -1.72,-13.54 -5.15,-17.49 -3.43,-3.97 -7.7,-5.96 -12.79,-5.96 -5.19,0 -9.48,1.97 -12.91,5.92 -3.41,3.95 -5.11,9.91 -5.11,17.87z"/>
   <path id="31" class="fil1" d="M2943.37 821.6l0 -86.17 31.77 0c5.58,0 9.85,0.28 12.81,0.82 4.13,0.7 7.6,2.05 10.4,4.01 2.8,1.98 5.05,4.75 6.76,8.3 1.7,3.55 2.55,7.46 2.55,11.73 0,7.3 -2.27,13.5 -6.83,18.56 -4.54,5.07 -12.79,7.6 -24.69,7.6l-21.58 0 0 35.14 -11.16 0zm11.16 -45.25l21.74 0c7.21,0 12.3,-1.36 15.33,-4.11 3.01,-2.75 4.52,-6.6 4.52,-11.59 0,-3.59 -0.88,-6.68 -2.66,-9.25 -1.78,-2.57 -4.13,-4.27 -7.03,-5.09 -1.88,-0.5 -5.34,-0.76 -10.38,-0.76l-21.52 0 0 30.81z"/>
   <path id="32" class="fil1" d="M3060.29 813.78c-3.84,3.35 -7.54,5.7 -11.09,7.08 -3.54,1.38 -7.34,2.07 -11.42,2.07 -6.7,0 -11.85,-1.66 -15.45,-5.01 -3.6,-3.33 -5.4,-7.6 -5.4,-12.8 0,-3.05 0.68,-5.84 2.04,-8.36 1.37,-2.53 3.15,-4.53 5.35,-6.06 2.21,-1.52 4.68,-2.69 7.44,-3.47 2.04,-0.54 5.11,-1.06 9.2,-1.58 8.34,-1 14.51,-2.23 18.45,-3.63 0.04,-1.45 0.06,-2.37 0.06,-2.75 0,-4.29 -0.98,-7.32 -2.94,-9.09 -2.65,-2.39 -6.58,-3.57 -11.79,-3.57 -4.88,0 -8.48,0.88 -10.79,2.63 -2.33,1.75 -4.03,4.83 -5.15,9.29l-10.11 -1.44c0.92,-4.43 2.43,-8.02 4.55,-10.75 2.11,-2.73 5.17,-4.81 9.16,-6.3 3.98,-1.46 8.62,-2.21 13.86,-2.21 5.21,0 9.46,0.62 12.73,1.89 3.25,1.26 5.66,2.83 7.19,4.73 1.53,1.91 2.6,4.31 3.23,7.22 0.33,1.81 0.51,5.05 0.51,9.73l0 14.04c0,9.81 0.21,16.01 0.65,18.63 0.41,2.63 1.27,5.13 2.53,7.54l-10.81 0c-1.04,-2.23 -1.7,-4.83 -2,-7.82zm-0.82 -23.47c-3.76,1.56 -9.4,2.89 -16.92,3.97 -4.27,0.62 -7.29,1.32 -9.05,2.11 -1.76,0.78 -3.11,1.92 -4.07,3.41 -0.96,1.5 -1.45,3.17 -1.45,5.01 0,2.79 1.04,5.14 3.13,7 2.1,1.86 5.15,2.81 9.17,2.81 3.98,0 7.52,-0.88 10.63,-2.67 3.1,-1.77 5.39,-4.19 6.84,-7.26 1.12,-2.39 1.66,-5.9 1.66,-10.53l0.06 -3.85z"/>
   <path id="33" class="fil1" d="M3125.64 821.6l0 -9.29c-4.74,7.08 -11.16,10.61 -19.29,10.61 -3.58,0 -6.93,-0.7 -10.05,-2.11 -3.11,-1.42 -5.42,-3.19 -6.93,-5.32 -1.51,-2.15 -2.57,-4.75 -3.17,-7.84 -0.41,-2.09 -0.63,-5.38 -0.63,-9.87l0 -38.65 10.34 0 0 34.56c0,5.52 0.22,9.25 0.63,11.15 0.65,2.79 2.02,4.95 4.13,6.54 2.1,1.58 4.68,2.39 7.78,2.39 3.09,0 5.99,-0.8 8.69,-2.43 2.7,-1.63 4.62,-3.85 5.76,-6.64 1.12,-2.79 1.68,-6.86 1.68,-12.18l0 -33.4 10.34 0 0 62.46 -9.28 0z"/>
   <polygon id="34" class="fil1" points="3150.92,821.6 3150.92,735.43 3161.26,735.43 3161.26,821.6 "/>
   <path id="35" class="fil1" d="M3173.38 790.37c0,-11.53 3.13,-20.08 9.42,-25.63 5.23,-4.61 11.63,-6.92 19.17,-6.92 8.36,0 15.22,2.81 20.54,8.42 5.31,5.6 7.97,13.36 7.97,23.25 0,8.02 -1.17,14.32 -3.52,18.92 -2.35,4.59 -5.78,8.16 -10.28,10.71 -4.49,2.55 -9.4,3.81 -14.71,3.81 -8.54,0 -15.43,-2.79 -20.7,-8.38 -5.27,-5.6 -7.89,-13.66 -7.89,-24.17zm10.58 0.02c0,7.98 1.7,13.96 5.11,17.91 3.43,3.97 7.72,5.96 12.91,5.96 5.13,0 9.4,-1.99 12.83,-5.98 3.41,-3.99 5.11,-10.07 5.11,-18.23 0,-7.7 -1.72,-13.54 -5.15,-17.49 -3.43,-3.97 -7.7,-5.96 -12.79,-5.96 -5.19,0 -9.48,1.97 -12.91,5.92 -3.41,3.95 -5.11,9.91 -5.11,17.87z"/>
   <g>
    <path class="fil0" d="M475.51 82.6c92.04,8.24 174.08,51.16 232.97,115.6 58.4,63.91 94.03,148.98 94.03,242.38 0,99.26 -40.23,189.13 -105.28,254.17 -65.05,65.05 -154.91,105.28 -254.17,105.28 -99.26,0 -189.12,-40.24 -254.17,-105.28 -65.05,-65.05 -105.28,-154.91 -105.28,-254.17 0,-3.48 0.06,-7.07 0.18,-10.76 0.11,-3.62 0.28,-7.17 0.48,-10.68 0.05,-0.83 0.73,-1.47 1.55,-1.47l10.05 -0c0.86,0 1.55,0.7 1.55,1.55l-0.13 5.23c-0.03,1.51 -0.04,3.23 -0.04,5.2 0,92.48 37.48,176.2 98.09,236.8 60.6,60.6 144.33,98.09 236.8,98.09 92.48,0 176.2,-37.49 236.8,-98.09 60.6,-60.6 98.09,-144.32 98.09,-236.8 0,-84.69 -31.44,-162.04 -83.28,-221.01 -52.48,-59.7 -125.88,-100.57 -208.72,-111.16 -0.78,-0.1 -1.35,-0.77 -1.35,-1.54l-0.01 -11.81c0,-0.86 0.7,-1.55 1.55,-1.55l0.29 0.03zm0.09 102.96c23.5,3.89 45.9,11.05 66.7,21.01 20.92,10.01 40.22,22.83 57.41,37.97l53.4 -53.4c0.61,-0.61 1.59,-0.61 2.2,0l16.75 16.75c0.61,0.61 0.61,1.59 0,2.2l-53.21 53.21c19.17,20.91 34.84,45.09 46.06,71.62 10.19,24.09 16.71,50.11 18.87,77.35l-25.11 0c-1.29,-24.39 -6.34,-47.79 -14.59,-69.62 -9.16,-24.22 -22.25,-46.51 -38.5,-66.08l-129.27 129.27c-0.61,0.61 -1.59,0.61 -2.2,0 -0.3,-0.3 -0.46,-0.7 -0.46,-1.1l0 -33.5c0,-0.43 0.17,-0.82 0.46,-1.1l113.18 -113.18c-15.3,-14.64 -32.61,-27.21 -51.46,-37.25 -18.9,-10.07 -39.37,-17.6 -60.94,-22.13 -0.73,-0.15 -1.24,-0.8 -1.23,-1.52l-0 -8.98c0,-0.86 0.7,-1.55 1.55,-1.55 0.13,0 0.26,0.02 0.38,0.05zm208.56 232.11l9.72 0 12.83 0 51.33 0c0.86,0 1.55,0.7 1.55,1.55l0 23.69c0,0.86 -0.7,1.55 -1.55,1.55l-51.03 0 -6.88 0 -15.86 0 -26.11 0 -12.02 0 -7.53 0 -174.14 0 135.19 135.19c16.64,-18.53 30.34,-39.75 40.36,-62.92 9.03,-20.87 15.08,-43.33 17.62,-66.85l26.32 0c-1.91,27.4 -8.23,53.59 -18.26,77.85 -11.05,26.73 -26.6,51.13 -45.71,72.25l52.06 52.07c0.61,0.61 0.61,1.59 0,2.2l-16.75 16.75c-0.61,0.61 -1.59,0.61 -2.2,0l-52.13 -52.13c-21.18,18.91 -45.61,34.27 -72.32,45.13 -23.9,9.72 -49.65,15.85 -76.57,17.72l0 -26.32c23.04,-2.49 45.07,-8.34 65.58,-17.07 23.16,-9.85 44.4,-23.36 62.98,-39.8l-135.12 -135.12 0 162.35 0 30.26 0 26.08 0 16.37 0 58.52c0,0.86 -0.7,1.55 -1.55,1.55l-23.69 0c-0.86,0 -1.55,-0.7 -1.55,-1.55l0 -49.97 0 -25.17 0 -25.23 0 -22.31 0 -170.9 -139.93 139.93c19.42,16.12 41.52,29.13 65.54,38.28 21.29,8.11 44.08,13.17 67.83,14.66l0 25.06c-26.61,-2.36 -52.01,-8.88 -75.56,-18.91 -26.31,-11.2 -50.31,-26.79 -71.07,-45.83l-54.39 54.39c-0.61,0.61 -1.59,0.61 -2.2,0l-16.75 -16.75c-0.61,-0.61 -0.61,-1.59 0,-2.2l54.57 -54.58c-18.45,-20.95 -33.45,-45.01 -44.11,-71.3 -10.31,-25.42 -16.55,-52.93 -17.94,-81.72l-78.51 0c-0.86,0 -1.55,-0.7 -1.55,-1.55l0 -23.69c0,-0.86 0.7,-1.55 1.55,-1.55l533.39 0 6.25 0 13.05 0 25.26 0zm-488.5 26.79c2.26,26.74 9.06,52.2 19.62,75.59 10.91,24.15 25.83,46.11 43.9,65.01l140.6 -140.6 -204.12 0z"/>
    <path class="fil0" d="M458.39 83.77c-0.84,-0.25 -2.09,-0.04 -3.55,0l-18.98 0 -30.89 -0.01c-0.15,0 -0.3,0 -0.43,0.01l-0.92 0c-0.61,0 -1.11,0.5 -1.11,1.11l0 0.67c-0,0.1 -0,0.2 0,0.3l0 232.28c-0.94,-0.93 -1.66,-2.09 -2.53,-3.03 -0.73,-0.79 -1.69,-1.6 -2.46,-2.38l-6.75 -7.2c-0.81,-0.83 -1.57,-1.84 -2.32,-2.54 -0.78,-0.73 -0.62,-0.29 -1.38,-1.02l-9.96 -10.36c-0.05,-0.04 -0.11,-0.11 -0.15,-0.16l-2.39 -2.71c-1.11,-1.74 -3.18,-3.23 -4.63,-4.8 -0.71,-0.78 -1.45,-1.56 -2.2,-2.35l-20.62 -21.81c-0.79,-0.84 -1.43,-1.57 -2.16,-2.39 -1.75,-1.96 -4.14,-3.83 -5.83,-5.97 -0.34,-0.43 -0.7,-1 -1.04,-1.42 -2,-2.46 -4.79,-4.5 -6.83,-6.79 -0.9,-1.01 -1.47,-1.47 -2.35,-2.49l-2.2 -2.37c-2.57,-2.33 -4.44,-5.03 -6.88,-7.36 -0.9,-0.86 -1.43,-1.46 -2.27,-2.28l-4.48 -4.91c-0.9,-0.92 -1.57,-1.48 -2.48,-2.37 -1.06,-1.02 -1.45,-2.01 -2.44,-3l-1.23 -1.18c-0.05,-0.04 -0.12,-0.1 -0.16,-0.14l-2.05 -2.17c-0.05,-0.04 -0.13,-0.08 -0.18,-0.12l-0.66 -0.59c-0.44,-0.45 -0.76,-0.91 -1.14,-1.28l-11.43 -11.57c-1.3,-1.9 -2.03,-2.61 -4.8,-2.6 -10.61,0.04 -54.09,-0.56 -60.38,0.34 -0.41,17.52 -0.02,35.53 -0.02,53.1 0,17.58 0,35.16 0,52.73 0,2.99 0.25,5.82 0.17,8.61 0,0.12 0.01,0.24 0.01,0.36 0,1.51 -0.09,3.01 -0.26,4.48l-0 0c-0.37,3.21 -1.12,6.32 -2.23,9.3l-0 0.01c-0.12,0.32 -0.24,0.64 -0.37,0.96l-0.03 0.06c-0.13,0.31 -0.25,0.62 -0.39,0.93l-0.01 0.02c-0.13,0.31 -0.27,0.62 -0.41,0.93l-0.04 0.08c-0.14,0.29 -0.27,0.58 -0.42,0.87l-0.03 0.06c-0.15,0.3 -0.3,0.59 -0.45,0.88l-0.06 0.12c-0.14,0.26 -0.28,0.51 -0.42,0.77l-0.09 0.16c-0.15,0.27 -0.3,0.54 -0.46,0.8l-0.07 0.12c-0.15,0.25 -0.3,0.49 -0.45,0.74l-0.1 0.17c-0.17,0.26 -0.33,0.52 -0.5,0.78l-0.1 0.15c-0.16,0.24 -0.32,0.47 -0.47,0.7l-0.11 0.15c-0.18,0.26 -0.36,0.52 -0.55,0.77l-0.07 0.1c-0.18,0.24 -0.35,0.47 -0.53,0.71l-0.12 0.15c-5.52,7.16 -13.36,12.87 -22.58,16.37l-0 0 -0.02 0.01 -0.03 0.01 -0.03 0.01 -0.03 0.01 -0.02 0.01 -0.03 0.01 -0.03 0.01 -0.03 0.01 -0.02 0.01 -0.03 0.01 -0.03 0.01 -0.03 0.01 -0.02 0.01 -0.03 0.01 -0.03 0.01 -0.03 0.01 -0.03 0.01 -0.03 0.01 -0.03 0.01 -0.55 0.2 -0.03 0.01 -0.03 0.01 -0.03 0.01 -0.02 0.01 -0.03 0.01 -0.03 0.01 -0.2 0.07 -0.03 0.01 -0.03 0.01 -0.02 0.01 -0.03 0.01 -0.03 0.01 -0.03 0.01 -0.03 0.01 -0.03 0.01 -0.03 0.01 0 0c-6.03,2.08 -12.62,3.23 -19.51,3.23 -2.84,0 -5.62,-0.2 -8.34,-0.57l-0.04 -0.01 -0.04 -0.01 -0.04 -0 -0.58 -0.09 -0.04 -0.01 -0.04 -0.01 -0.04 -0.01 -0.04 -0 -0.04 -0.01 -0.04 -0.01 -0.04 -0.01 -0.17 -0.03 -0.04 -0.01 -0.04 -0.01 -0.04 -0.01c-0.19,-0.03 -0.39,-0.06 -0.58,-0.09l-0.04 -0.01 -0.04 -0.01 -0.04 -0.01 -0.04 -0.01 -0.04 -0.01 -0.04 -0.01 -0.04 -0.01 -0.04 -0.01 -0.04 -0.01 -0.04 -0.01 -0.04 -0.01 -0.04 -0.01 -0.04 -0.01 -0.04 -0.01 -0.04 -0.01 -0.16 -0.03 -0.01 -0c-12.47,-2.29 -23.3,-8.39 -30.75,-16.82l-0.01 -0.01 -0.24 -0.28 -0.14 -0.16c-0.15,-0.18 -0.3,-0.35 -0.45,-0.53l-0.27 -0.32c-0.13,-0.16 -0.26,-0.32 -0.39,-0.48l-0.37 -0.47 -0.27 -0.34c-0.13,-0.17 -0.25,-0.33 -0.38,-0.5l-0.28 -0.38 -0.33 -0.47 -0.29 -0.41 -0.35 -0.52 -0.21 -0.31c-0.12,-0.18 -0.24,-0.37 -0.36,-0.56l-0.21 -0.34c-0.13,-0.21 -0.25,-0.41 -0.37,-0.61l-0.18 -0.3c-0.13,-0.22 -0.25,-0.43 -0.37,-0.65l-0.16 -0.29c-0.11,-0.2 -0.22,-0.41 -0.33,-0.61l-0.14 -0.26c-0.13,-0.25 -0.26,-0.5 -0.38,-0.75l-0.06 -0.13c-0.14,-0.28 -0.28,-0.56 -0.41,-0.85l-0.09 -0.18c-0.12,-0.26 -0.24,-0.53 -0.35,-0.79l-0.05 -0.12c-0.12,-0.28 -0.24,-0.56 -0.35,-0.84l-0.05 -0.12c-0.12,-0.31 -0.24,-0.62 -0.36,-0.93l-0 -0.01 -0 -0c-0.12,-0.32 -0.24,-0.65 -0.35,-0.98l-0.02 -0.05c-0.11,-0.31 -0.21,-0.62 -0.3,-0.93l-0.02 -0.07c-0.73,-2.35 -1.25,-4.78 -1.54,-7.27l0 0c-0.17,-1.47 -0.26,-2.97 -0.26,-4.48 0,-0.71 0.02,-1.42 0.06,-2.12 -0.13,-1.84 -0.17,-3.37 -0.17,-7.15 0,-17.68 0,-35.36 0,-53.04 0,-6.31 0.38,-47.54 -0.07,-52.64 -0.73,-0.34 -0.7,-0.56 -1.72,-0.56l-53.94 0c-1.39,0 -1.81,0.33 -2.58,0.9 -0.37,26.52 -0.01,53.33 -0.01,79.88 0,13.02 -0.19,26.55 0.28,39.21l-0.28 0c0,44.83 40.93,81.9 94.2,88.1l0.01 0c0.39,0.05 0.78,0.09 1.17,0.13 0.37,0.04 0.74,0.08 1.12,0.12 0.61,0.06 1.23,0.12 1.84,0.17l0.77 0.06c0.72,0.06 1.44,0.11 2.16,0.16l0.47 0.03c0.81,0.05 1.63,0.09 2.45,0.12l0.27 0.01c0.87,0.03 1.75,0.06 2.63,0.08l0.12 0c0.92,0.02 1.85,0.03 2.78,0.03 0.84,0 1.68,-0.01 2.51,-0.03l0.72 -0.02c0.68,-0.02 1.35,-0.04 2.03,-0.06l0.54 -0.02c0.81,-0.03 1.63,-0.08 2.44,-0.12l0.63 -0.04c0.65,-0.04 1.31,-0.09 1.96,-0.14l0.65 -0.05c0.8,-0.07 1.6,-0.14 2.4,-0.22l0.51 -0.05c0.65,-0.07 1.31,-0.14 1.96,-0.22l0.73 -0.09c0.8,-0.1 1.6,-0.21 2.39,-0.32l0.01 0c0.79,-0.12 1.57,-0.24 2.35,-0.36l0.75 -0.13c0.61,-0.1 1.22,-0.21 1.82,-0.32l0.59 -0.11c0.75,-0.14 1.49,-0.29 2.23,-0.44l0.76 -0.16c0.54,-0.12 1.08,-0.24 1.61,-0.35l0.8 -0.18c0.72,-0.17 1.43,-0.34 2.14,-0.51 0.22,-0.06 0.44,-0.12 0.67,-0.17 0.55,-0.14 1.1,-0.29 1.65,-0.44l0.78 -0.21c0.59,-0.17 1.18,-0.33 1.77,-0.51l0.86 -0.25c0.56,-0.17 1.12,-0.34 1.68,-0.52l0.86 -0.27c0.47,-0.15 0.93,-0.31 1.39,-0.46 0.28,-0.09 0.55,-0.19 0.83,-0.28 0.64,-0.22 1.28,-0.45 1.92,-0.68l0.9 -0.33c0.41,-0.15 0.82,-0.31 1.23,-0.46 0.31,-0.12 0.63,-0.24 0.94,-0.36 0.62,-0.24 1.23,-0.49 1.84,-0.74 0.32,-0.13 0.63,-0.26 0.94,-0.4l1.03 -0.44c0.36,-0.16 0.72,-0.31 1.08,-0.47 0.33,-0.15 0.67,-0.3 1,-0.45 0.58,-0.26 1.15,-0.53 1.72,-0.8 0.3,-0.14 0.6,-0.29 0.91,-0.43 0.37,-0.18 0.74,-0.36 1.12,-0.55l0.76 -0.38c0.79,-0.4 1.58,-0.81 2.36,-1.23l0.29 -0.15c0.4,-0.21 0.79,-0.43 1.19,-0.65l0.67 -0.38c0.39,-0.22 0.77,-0.44 1.15,-0.66l0.19 -0.11c0.85,-0.5 1.69,-1 2.51,-1.51l0.44 -0.27c0.42,-0.26 0.83,-0.52 1.24,-0.79l0.27 -0.18c0.86,-0.56 1.72,-1.13 2.56,-1.71l0.1 -0.07c0.44,-0.3 0.87,-0.61 1.3,-0.92l0.19 -0.14c1.33,-0.95 2.63,-1.93 3.91,-2.94l0.05 -0.04c20.45,-16.16 33.15,-38.72 33.15,-63.68l-0.13 0c0.05,-0.73 0.09,-1.46 0.1,-2.23 0.03,-2.63 0.03,-5.26 0.03,-7.89 -0,-8.19 -0.38,-42.21 0.06,-47.45 1.44,0.11 3.38,2.83 4.52,4.02 1.42,1.49 2.69,2.92 4,4.49 0.71,0.86 1.36,1.52 2.11,2.45 1.93,2.42 4.12,4.29 6.08,6.64 0.82,0.99 1.24,1.44 2.15,2.4l4.04 4.44c2.41,3.18 5.49,5.88 8.13,8.84l6.19 6.84c0.7,0.78 1.12,1.62 1.84,2.42 0.71,0.8 1.33,1.31 2.04,2.2l3.88 4.64c1.32,1.95 2.66,2.48 4.15,4.29l14.96 17.22c0.7,1 0.2,0.22 0.95,1.15l4.86 5.14c0.16,0.21 0.31,0.46 0.37,0.54 0.54,0.7 -0.06,0.02 0.57,0.61 0.04,0.04 0.12,0.1 0.16,0.14l3.32 3.66c0.06,0.06 0.25,0.22 0.32,0.29l12 13.15c0.39,0.41 0.21,0.25 0.6,0.62l14.61 16.31c2.13,2.21 3.75,4.68 5.85,6.87 0.41,0.44 0.68,0.65 1.07,1.04 1.09,1.09 2.56,3.43 3.57,4.3l15.49 16.66c0.99,1.08 0.95,1.24 2.95,1.24l43.95 0c2.06,0 1.79,-0.4 1.78,-2.29l0 -0.09 0 -315.22 0 -0.92c0,-0.61 -0.5,-1.11 -1.11,-1.11l-0.01 0zm-331.38 250.47c-0.13,-0.21 -0.25,-0.43 -0.37,-0.65l0.37 0.65z"/>
    <polygon class="fil0" points="432.13,0 446.42,31.68 460.7,63.36 432.13,63.36 403.56,63.36 417.85,31.68 "/>
    <polygon class="fil0" points="-0,429.64 31.68,415.36 63.36,401.07 63.36,429.64 63.36,458.21 31.68,443.93 "/>
    <polygon class="fil0" points="432.13,879.18 417.84,847.5 403.56,815.82 432.13,815.82 460.7,815.82 446.42,847.5 "/>
    <polygon class="fil0" points="884.15,429.64 852.47,443.93 820.8,458.22 820.8,429.64 820.8,401.07 852.47,415.36 "/>
   </g>
  </g>
 </g>
</svg>
